<?xml version="1.0" encoding="utf-8" standalone="no"?>
<!DOCTYPE svg PUBLIC "-//W3C//DTD SVG 1.1//EN"
  "http://www.w3.org/Graphics/SVG/1.1/DTD/svg11.dtd">
<svg xmlns:xlink="http://www.w3.org/1999/xlink" width="907.2pt" height="402.48pt" viewBox="0 0 907.2 402.48" xmlns="http://www.w3.org/2000/svg" version="1.1">
 <metadata>
  <rdf:RDF xmlns:dc="http://purl.org/dc/elements/1.1/" xmlns:cc="http://creativecommons.org/ns#" xmlns:rdf="http://www.w3.org/1999/02/22-rdf-syntax-ns#">
   <cc:Work>
    <dc:type rdf:resource="http://purl.org/dc/dcmitype/StillImage"/>
    <dc:date>2026-03-29T15:12:22.425153</dc:date>
    <dc:format>image/svg+xml</dc:format>
    <dc:creator>
     <cc:Agent>
      <dc:title>Matplotlib v3.10.8, https://matplotlib.org/</dc:title>
     </cc:Agent>
    </dc:creator>
   </cc:Work>
  </rdf:RDF>
 </metadata>
 <defs>
  <style type="text/css">*{stroke-linejoin: round; stroke-linecap: butt}</style>
 </defs>
 <g id="figure_1">
  <g id="patch_1">
   <path d="M 0 402.48 
L 907.2 402.48 
L 907.2 -0 
L 0 -0 
z
" style="fill: #ffffff"/>
  </g>
  <g id="axes_1">
   <g id="patch_2">
    <path d="M 33.653333 249.003692 
L 179.146667 249.003692 
Q 189.066667 249.003692 189.066667 240.048 
L 189.066667 132.579692 
Q 189.066667 123.624 179.146667 123.624 
L 33.653333 123.624 
Q 23.733333 123.624 23.733333 132.579692 
L 23.733333 240.048 
Q 23.733333 249.003692 33.653333 249.003692 
z
" clip-path="url(#p1ee3a112eb)" style="fill: #ecf0f1; stroke: #333333; stroke-width: 1.5; stroke-linejoin: miter"/>
   </g>
   <g id="patch_3">
    <path d="M 232.053333 249.003692 
L 377.546667 249.003692 
Q 387.466667 249.003692 387.466667 240.048 
L 387.466667 132.579692 
Q 387.466667 123.624 377.546667 123.624 
L 232.053333 123.624 
Q 222.133333 123.624 222.133333 132.579692 
L 222.133333 240.048 
Q 222.133333 249.003692 232.053333 249.003692 
z
" clip-path="url(#p1ee3a112eb)" style="fill: #d5f5e3; stroke: #333333; stroke-width: 1.5; stroke-linejoin: miter"/>
   </g>
   <g id="patch_4">
    <path d="M 430.453333 249.003692 
L 575.946667 249.003692 
Q 585.866667 249.003692 585.866667 240.048 
L 585.866667 132.579692 
Q 585.866667 123.624 575.946667 123.624 
L 430.453333 123.624 
Q 420.533333 123.624 420.533333 132.579692 
L 420.533333 240.048 
Q 420.533333 249.003692 430.453333 249.003692 
z
" clip-path="url(#p1ee3a112eb)" style="fill: #d6eaf8; stroke: #333333; stroke-width: 1.5; stroke-linejoin: miter"/>
   </g>
   <g id="patch_5">
    <path d="M 628.853333 249.003692 
L 774.346667 249.003692 
Q 784.266667 249.003692 784.266667 240.048 
L 784.266667 132.579692 
Q 784.266667 123.624 774.346667 123.624 
L 628.853333 123.624 
Q 618.933333 123.624 618.933333 132.579692 
L 618.933333 240.048 
Q 618.933333 249.003692 628.853333 249.003692 
z
" clip-path="url(#p1ee3a112eb)" style="fill: #fadbd8; stroke: #333333; stroke-width: 1.5; stroke-linejoin: miter"/>
   </g>
   <g id="text_1">
    <!-- Input -->
    <g transform="translate(88.462813 182.906409) scale(0.12 -0.12)">
     <defs>
      <path id="DejaVuSans-Bold-49" d="M 588 4666 
L 1791 4666 
L 1791 0 
L 588 0 
L 588 4666 
z
" transform="scale(0.015625)"/>
      <path id="DejaVuSans-Bold-6e" d="M 4056 2131 
L 4056 0 
L 2931 0 
L 2931 347 
L 2931 1631 
Q 2931 2084 2911 2256 
Q 2891 2428 2841 2509 
Q 2775 2619 2662 2680 
Q 2550 2741 2406 2741 
Q 2056 2741 1856 2470 
Q 1656 2200 1656 1722 
L 1656 0 
L 538 0 
L 538 3500 
L 1656 3500 
L 1656 2988 
Q 1909 3294 2193 3439 
Q 2478 3584 2822 3584 
Q 3428 3584 3742 3212 
Q 4056 2841 4056 2131 
z
" transform="scale(0.015625)"/>
      <path id="DejaVuSans-Bold-70" d="M 1656 506 
L 1656 -1331 
L 538 -1331 
L 538 3500 
L 1656 3500 
L 1656 2988 
Q 1888 3294 2169 3439 
Q 2450 3584 2816 3584 
Q 3463 3584 3878 3070 
Q 4294 2556 4294 1747 
Q 4294 938 3878 423 
Q 3463 -91 2816 -91 
Q 2450 -91 2169 54 
Q 1888 200 1656 506 
z
M 2400 2772 
Q 2041 2772 1848 2508 
Q 1656 2244 1656 1747 
Q 1656 1250 1848 986 
Q 2041 722 2400 722 
Q 2759 722 2948 984 
Q 3138 1247 3138 1747 
Q 3138 2247 2948 2509 
Q 2759 2772 2400 2772 
z
" transform="scale(0.015625)"/>
      <path id="DejaVuSans-Bold-75" d="M 500 1363 
L 500 3500 
L 1625 3500 
L 1625 3150 
Q 1625 2866 1622 2436 
Q 1619 2006 1619 1863 
Q 1619 1441 1641 1255 
Q 1663 1069 1716 984 
Q 1784 875 1895 815 
Q 2006 756 2150 756 
Q 2500 756 2700 1025 
Q 2900 1294 2900 1772 
L 2900 3500 
L 4019 3500 
L 4019 0 
L 2900 0 
L 2900 506 
Q 2647 200 2364 54 
Q 2081 -91 1741 -91 
Q 1134 -91 817 281 
Q 500 653 500 1363 
z
" transform="scale(0.015625)"/>
      <path id="DejaVuSans-Bold-74" d="M 1759 4494 
L 1759 3500 
L 2913 3500 
L 2913 2700 
L 1759 2700 
L 1759 1216 
Q 1759 972 1856 886 
Q 1953 800 2241 800 
L 2816 800 
L 2816 0 
L 1856 0 
Q 1194 0 917 276 
Q 641 553 641 1216 
L 641 2700 
L 84 2700 
L 84 3500 
L 641 3500 
L 641 4494 
L 1759 4494 
z
" transform="scale(0.015625)"/>
     </defs>
     <use xlink:href="#DejaVuSans-Bold-49"/>
     <use xlink:href="#DejaVuSans-Bold-6e" transform="translate(37.207031 0)"/>
     <use xlink:href="#DejaVuSans-Bold-70" transform="translate(108.398438 0)"/>
     <use xlink:href="#DejaVuSans-Bold-75" transform="translate(179.980469 0)"/>
     <use xlink:href="#DejaVuSans-Bold-74" transform="translate(251.171875 0)"/>
    </g>
    <!-- x -->
    <g transform="translate(102.53 196.343784) scale(0.12 -0.12)">
     <defs>
      <path id="DejaVuSans-Bold-78" d="M 1422 1791 
L 159 3500 
L 1344 3500 
L 2059 2463 
L 2784 3500 
L 3969 3500 
L 2706 1797 
L 4031 0 
L 2847 0 
L 2059 1106 
L 1281 0 
L 97 0 
L 1422 1791 
z
" transform="scale(0.015625)"/>
     </defs>
     <use xlink:href="#DejaVuSans-Bold-78"/>
    </g>
   </g>
   <g id="text_2">
    <!-- Linear -->
    <g transform="translate(283.57125 182.906409) scale(0.12 -0.12)">
     <defs>
      <path id="DejaVuSans-Bold-4c" d="M 588 4666 
L 1791 4666 
L 1791 909 
L 3903 909 
L 3903 0 
L 588 0 
L 588 4666 
z
" transform="scale(0.015625)"/>
      <path id="DejaVuSans-Bold-69" d="M 538 3500 
L 1656 3500 
L 1656 0 
L 538 0 
L 538 3500 
z
M 538 4863 
L 1656 4863 
L 1656 3950 
L 538 3950 
L 538 4863 
z
" transform="scale(0.015625)"/>
      <path id="DejaVuSans-Bold-65" d="M 4031 1759 
L 4031 1441 
L 1416 1441 
Q 1456 1047 1700 850 
Q 1944 653 2381 653 
Q 2734 653 3104 758 
Q 3475 863 3866 1075 
L 3866 213 
Q 3469 63 3072 -14 
Q 2675 -91 2278 -91 
Q 1328 -91 801 392 
Q 275 875 275 1747 
Q 275 2603 792 3093 
Q 1309 3584 2216 3584 
Q 3041 3584 3536 3087 
Q 4031 2591 4031 1759 
z
M 2881 2131 
Q 2881 2450 2695 2645 
Q 2509 2841 2209 2841 
Q 1884 2841 1681 2658 
Q 1478 2475 1428 2131 
L 2881 2131 
z
" transform="scale(0.015625)"/>
      <path id="DejaVuSans-Bold-61" d="M 2106 1575 
Q 1756 1575 1579 1456 
Q 1403 1338 1403 1106 
Q 1403 894 1545 773 
Q 1688 653 1941 653 
Q 2256 653 2472 879 
Q 2688 1106 2688 1447 
L 2688 1575 
L 2106 1575 
z
M 3816 1997 
L 3816 0 
L 2688 0 
L 2688 519 
Q 2463 200 2181 54 
Q 1900 -91 1497 -91 
Q 953 -91 614 226 
Q 275 544 275 1050 
Q 275 1666 698 1953 
Q 1122 2241 2028 2241 
L 2688 2241 
L 2688 2328 
Q 2688 2594 2478 2717 
Q 2269 2841 1825 2841 
Q 1466 2841 1156 2769 
Q 847 2697 581 2553 
L 581 3406 
Q 941 3494 1303 3539 
Q 1666 3584 2028 3584 
Q 2975 3584 3395 3211 
Q 3816 2838 3816 1997 
z
" transform="scale(0.015625)"/>
      <path id="DejaVuSans-Bold-72" d="M 3138 2547 
Q 2991 2616 2845 2648 
Q 2700 2681 2553 2681 
Q 2122 2681 1889 2404 
Q 1656 2128 1656 1613 
L 1656 0 
L 538 0 
L 538 3500 
L 1656 3500 
L 1656 2925 
Q 1872 3269 2151 3426 
Q 2431 3584 2822 3584 
Q 2878 3584 2943 3579 
Q 3009 3575 3134 3559 
L 3138 2547 
z
" transform="scale(0.015625)"/>
     </defs>
     <use xlink:href="#DejaVuSans-Bold-4c"/>
     <use xlink:href="#DejaVuSans-Bold-69" transform="translate(63.720703 0)"/>
     <use xlink:href="#DejaVuSans-Bold-6e" transform="translate(97.998047 0)"/>
     <use xlink:href="#DejaVuSans-Bold-65" transform="translate(169.189453 0)"/>
     <use xlink:href="#DejaVuSans-Bold-61" transform="translate(237.011719 0)"/>
     <use xlink:href="#DejaVuSans-Bold-72" transform="translate(304.492188 0)"/>
    </g>
    <!-- z = wx + b -->
    <g transform="translate(269.189062 196.343784) scale(0.12 -0.12)">
     <defs>
      <path id="DejaVuSans-Bold-7a" d="M 366 3500 
L 3419 3500 
L 3419 2719 
L 1575 800 
L 3419 800 
L 3419 0 
L 288 0 
L 288 781 
L 2131 2700 
L 366 2700 
L 366 3500 
z
" transform="scale(0.015625)"/>
      <path id="DejaVuSans-Bold-20" transform="scale(0.015625)"/>
      <path id="DejaVuSans-Bold-3d" d="M 678 3084 
L 4684 3084 
L 4684 2350 
L 678 2350 
L 678 3084 
z
M 678 1663 
L 4684 1663 
L 4684 922 
L 678 922 
L 678 1663 
z
" transform="scale(0.015625)"/>
      <path id="DejaVuSans-Bold-77" d="M 225 3500 
L 1313 3500 
L 1900 1088 
L 2491 3500 
L 3425 3500 
L 4013 1113 
L 4603 3500 
L 5691 3500 
L 4769 0 
L 3547 0 
L 2956 2406 
L 2369 0 
L 1147 0 
L 225 3500 
z
" transform="scale(0.015625)"/>
      <path id="DejaVuSans-Bold-2b" d="M 3053 4013 
L 3053 2375 
L 4684 2375 
L 4684 1638 
L 3053 1638 
L 3053 0 
L 2309 0 
L 2309 1638 
L 678 1638 
L 678 2375 
L 2309 2375 
L 2309 4013 
L 3053 4013 
z
" transform="scale(0.015625)"/>
      <path id="DejaVuSans-Bold-62" d="M 2400 722 
Q 2759 722 2948 984 
Q 3138 1247 3138 1747 
Q 3138 2247 2948 2509 
Q 2759 2772 2400 2772 
Q 2041 2772 1848 2508 
Q 1656 2244 1656 1747 
Q 1656 1250 1848 986 
Q 2041 722 2400 722 
z
M 1656 2988 
Q 1888 3294 2169 3439 
Q 2450 3584 2816 3584 
Q 3463 3584 3878 3070 
Q 4294 2556 4294 1747 
Q 4294 938 3878 423 
Q 3463 -91 2816 -91 
Q 2450 -91 2169 54 
Q 1888 200 1656 506 
L 1656 0 
L 538 0 
L 538 4863 
L 1656 4863 
L 1656 2988 
z
" transform="scale(0.015625)"/>
     </defs>
     <use xlink:href="#DejaVuSans-Bold-7a"/>
     <use xlink:href="#DejaVuSans-Bold-20" transform="translate(58.203125 0)"/>
     <use xlink:href="#DejaVuSans-Bold-3d" transform="translate(93.017578 0)"/>
     <use xlink:href="#DejaVuSans-Bold-20" transform="translate(176.806641 0)"/>
     <use xlink:href="#DejaVuSans-Bold-77" transform="translate(211.621094 0)"/>
     <use xlink:href="#DejaVuSans-Bold-78" transform="translate(304.003906 0)"/>
     <use xlink:href="#DejaVuSans-Bold-20" transform="translate(368.505859 0)"/>
     <use xlink:href="#DejaVuSans-Bold-2b" transform="translate(403.320312 0)"/>
     <use xlink:href="#DejaVuSans-Bold-20" transform="translate(487.109375 0)"/>
     <use xlink:href="#DejaVuSans-Bold-62" transform="translate(521.923828 0)"/>
    </g>
   </g>
   <g id="text_3">
    <!-- Activation -->
    <g transform="translate(468.796562 182.906409) scale(0.12 -0.12)">
     <defs>
      <path id="DejaVuSans-Bold-41" d="M 3419 850 
L 1538 850 
L 1241 0 
L 31 0 
L 1759 4666 
L 3194 4666 
L 4922 0 
L 3713 0 
L 3419 850 
z
M 1838 1716 
L 3116 1716 
L 2478 3572 
L 1838 1716 
z
" transform="scale(0.015625)"/>
      <path id="DejaVuSans-Bold-63" d="M 3366 3391 
L 3366 2478 
Q 3138 2634 2908 2709 
Q 2678 2784 2431 2784 
Q 1963 2784 1702 2511 
Q 1441 2238 1441 1747 
Q 1441 1256 1702 982 
Q 1963 709 2431 709 
Q 2694 709 2930 787 
Q 3166 866 3366 1019 
L 3366 103 
Q 3103 6 2833 -42 
Q 2563 -91 2291 -91 
Q 1344 -91 809 395 
Q 275 881 275 1747 
Q 275 2613 809 3098 
Q 1344 3584 2291 3584 
Q 2566 3584 2833 3536 
Q 3100 3488 3366 3391 
z
" transform="scale(0.015625)"/>
      <path id="DejaVuSans-Bold-76" d="M 97 3500 
L 1216 3500 
L 2088 1081 
L 2956 3500 
L 4078 3500 
L 2700 0 
L 1472 0 
L 97 3500 
z
" transform="scale(0.015625)"/>
      <path id="DejaVuSans-Bold-6f" d="M 2203 2784 
Q 1831 2784 1636 2517 
Q 1441 2250 1441 1747 
Q 1441 1244 1636 976 
Q 1831 709 2203 709 
Q 2569 709 2762 976 
Q 2956 1244 2956 1747 
Q 2956 2250 2762 2517 
Q 2569 2784 2203 2784 
z
M 2203 3584 
Q 3106 3584 3614 3096 
Q 4122 2609 4122 1747 
Q 4122 884 3614 396 
Q 3106 -91 2203 -91 
Q 1297 -91 786 396 
Q 275 884 275 1747 
Q 275 2609 786 3096 
Q 1297 3584 2203 3584 
z
" transform="scale(0.015625)"/>
     </defs>
     <use xlink:href="#DejaVuSans-Bold-41"/>
     <use xlink:href="#DejaVuSans-Bold-63" transform="translate(77.392578 0)"/>
     <use xlink:href="#DejaVuSans-Bold-74" transform="translate(136.669922 0)"/>
     <use xlink:href="#DejaVuSans-Bold-69" transform="translate(184.472656 0)"/>
     <use xlink:href="#DejaVuSans-Bold-76" transform="translate(218.75 0)"/>
     <use xlink:href="#DejaVuSans-Bold-61" transform="translate(283.935547 0)"/>
     <use xlink:href="#DejaVuSans-Bold-74" transform="translate(351.416016 0)"/>
     <use xlink:href="#DejaVuSans-Bold-69" transform="translate(399.21875 0)"/>
     <use xlink:href="#DejaVuSans-Bold-6f" transform="translate(433.496094 0)"/>
     <use xlink:href="#DejaVuSans-Bold-6e" transform="translate(502.197266 0)"/>
    </g>
    <!-- a = ReLU(z) -->
    <g transform="translate(463.801562 196.343784) scale(0.12 -0.12)">
     <defs>
      <path id="DejaVuSans-Bold-52" d="M 2297 2597 
Q 2675 2597 2839 2737 
Q 3003 2878 3003 3200 
Q 3003 3519 2839 3656 
Q 2675 3794 2297 3794 
L 1791 3794 
L 1791 2597 
L 2297 2597 
z
M 1791 1766 
L 1791 0 
L 588 0 
L 588 4666 
L 2425 4666 
Q 3347 4666 3776 4356 
Q 4206 4047 4206 3378 
Q 4206 2916 3982 2619 
Q 3759 2322 3309 2181 
Q 3556 2125 3751 1926 
Q 3947 1728 4147 1325 
L 4800 0 
L 3519 0 
L 2950 1159 
Q 2778 1509 2601 1637 
Q 2425 1766 2131 1766 
L 1791 1766 
z
" transform="scale(0.015625)"/>
      <path id="DejaVuSans-Bold-55" d="M 588 4666 
L 1791 4666 
L 1791 1869 
Q 1791 1291 1980 1042 
Q 2169 794 2597 794 
Q 3028 794 3217 1042 
Q 3406 1291 3406 1869 
L 3406 4666 
L 4609 4666 
L 4609 1869 
Q 4609 878 4112 393 
Q 3616 -91 2597 -91 
Q 1581 -91 1084 393 
Q 588 878 588 1869 
L 588 4666 
z
" transform="scale(0.015625)"/>
      <path id="DejaVuSans-Bold-28" d="M 2413 -844 
L 1484 -844 
Q 1006 -72 778 623 
Q 550 1319 550 2003 
Q 550 2688 779 3389 
Q 1009 4091 1484 4856 
L 2413 4856 
Q 2013 4116 1813 3408 
Q 1613 2700 1613 2009 
Q 1613 1319 1811 609 
Q 2009 -100 2413 -844 
z
" transform="scale(0.015625)"/>
      <path id="DejaVuSans-Bold-29" d="M 513 -844 
Q 913 -100 1113 609 
Q 1313 1319 1313 2009 
Q 1313 2700 1113 3408 
Q 913 4116 513 4856 
L 1441 4856 
Q 1916 4091 2145 3389 
Q 2375 2688 2375 2003 
Q 2375 1319 2147 623 
Q 1919 -72 1441 -844 
L 513 -844 
z
" transform="scale(0.015625)"/>
     </defs>
     <use xlink:href="#DejaVuSans-Bold-61"/>
     <use xlink:href="#DejaVuSans-Bold-20" transform="translate(67.480469 0)"/>
     <use xlink:href="#DejaVuSans-Bold-3d" transform="translate(102.294922 0)"/>
     <use xlink:href="#DejaVuSans-Bold-20" transform="translate(186.083984 0)"/>
     <use xlink:href="#DejaVuSans-Bold-52" transform="translate(220.898438 0)"/>
     <use xlink:href="#DejaVuSans-Bold-65" transform="translate(297.900391 0)"/>
     <use xlink:href="#DejaVuSans-Bold-4c" transform="translate(365.722656 0)"/>
     <use xlink:href="#DejaVuSans-Bold-55" transform="translate(425.818359 0)"/>
     <use xlink:href="#DejaVuSans-Bold-28" transform="translate(507.019531 0)"/>
     <use xlink:href="#DejaVuSans-Bold-7a" transform="translate(552.722656 0)"/>
     <use xlink:href="#DejaVuSans-Bold-29" transform="translate(610.925781 0)"/>
    </g>
   </g>
   <g id="text_4">
    <!-- Loss -->
    <g transform="translate(686.512812 182.859534) scale(0.12 -0.12)">
     <defs>
      <path id="DejaVuSans-Bold-73" d="M 3272 3391 
L 3272 2541 
Q 2913 2691 2578 2766 
Q 2244 2841 1947 2841 
Q 1628 2841 1473 2761 
Q 1319 2681 1319 2516 
Q 1319 2381 1436 2309 
Q 1553 2238 1856 2203 
L 2053 2175 
Q 2913 2066 3209 1816 
Q 3506 1566 3506 1031 
Q 3506 472 3093 190 
Q 2681 -91 1863 -91 
Q 1516 -91 1145 -36 
Q 775 19 384 128 
L 384 978 
Q 719 816 1070 734 
Q 1422 653 1784 653 
Q 2113 653 2278 743 
Q 2444 834 2444 1013 
Q 2444 1163 2330 1236 
Q 2216 1309 1875 1350 
L 1678 1375 
Q 931 1469 631 1722 
Q 331 1975 331 2491 
Q 331 3047 712 3315 
Q 1094 3584 1881 3584 
Q 2191 3584 2531 3537 
Q 2872 3491 3272 3391 
z
" transform="scale(0.015625)"/>
     </defs>
     <use xlink:href="#DejaVuSans-Bold-4c"/>
     <use xlink:href="#DejaVuSans-Bold-6f" transform="translate(63.720703 0)"/>
     <use xlink:href="#DejaVuSans-Bold-73" transform="translate(132.421875 0)"/>
     <use xlink:href="#DejaVuSans-Bold-73" transform="translate(191.943359 0)"/>
    </g>
    <!-- L = (a-y)² -->
    <g transform="translate(670.009062 196.296909) scale(0.12 -0.12)">
     <defs>
      <path id="DejaVuSans-Bold-2d" d="M 347 2297 
L 2309 2297 
L 2309 1388 
L 347 1388 
L 347 2297 
z
" transform="scale(0.015625)"/>
      <path id="DejaVuSans-Bold-79" d="M 78 3500 
L 1197 3500 
L 2138 1125 
L 2938 3500 
L 4056 3500 
L 2584 -331 
Q 2363 -916 2067 -1148 
Q 1772 -1381 1288 -1381 
L 641 -1381 
L 641 -647 
L 991 -647 
Q 1275 -647 1404 -556 
Q 1534 -466 1606 -231 
L 1638 -134 
L 78 3500 
z
" transform="scale(0.015625)"/>
      <path id="DejaVuSans-Bold-b2" d="M 1288 2613 
L 2444 2613 
L 2444 2088 
L 341 2088 
L 341 2566 
L 1319 3397 
Q 1509 3563 1590 3688 
Q 1672 3813 1672 3938 
Q 1672 4094 1558 4191 
Q 1444 4288 1259 4288 
Q 1066 4288 844 4217 
Q 622 4147 359 4000 
L 359 4581 
Q 631 4666 886 4708 
Q 1141 4750 1375 4750 
Q 1869 4750 2150 4548 
Q 2431 4347 2431 4000 
Q 2431 3775 2320 3586 
Q 2209 3397 1894 3128 
L 1288 2613 
z
" transform="scale(0.015625)"/>
     </defs>
     <use xlink:href="#DejaVuSans-Bold-4c"/>
     <use xlink:href="#DejaVuSans-Bold-20" transform="translate(63.720703 0)"/>
     <use xlink:href="#DejaVuSans-Bold-3d" transform="translate(98.535156 0)"/>
     <use xlink:href="#DejaVuSans-Bold-20" transform="translate(182.324219 0)"/>
     <use xlink:href="#DejaVuSans-Bold-28" transform="translate(217.138672 0)"/>
     <use xlink:href="#DejaVuSans-Bold-61" transform="translate(262.841797 0)"/>
     <use xlink:href="#DejaVuSans-Bold-2d" transform="translate(330.322266 0)"/>
     <use xlink:href="#DejaVuSans-Bold-79" transform="translate(371.826172 0)"/>
     <use xlink:href="#DejaVuSans-Bold-29" transform="translate(437.011719 0)"/>
     <use xlink:href="#DejaVuSans-Bold-b2" transform="translate(482.714844 0)"/>
    </g>
   </g>
   <g id="patch_6">
    <path d="M 181.145521 162.432 
Q 205.600473 162.432 227.26034 162.432 
" style="fill: none; stroke: #27ae60; stroke-width: 2.5; stroke-linecap: round"/>
    <path d="M 223.26034 160.432 
L 227.26034 162.432 
L 223.26034 164.432 
" style="fill: none; stroke: #27ae60; stroke-width: 2.5; stroke-linecap: round"/>
   </g>
   <g id="patch_7">
    <path d="M 379.545521 162.432 
Q 404.000473 162.432 425.66034 162.432 
" style="fill: none; stroke: #27ae60; stroke-width: 2.5; stroke-linecap: round"/>
    <path d="M 421.66034 160.432 
L 425.66034 162.432 
L 421.66034 164.432 
" style="fill: none; stroke: #27ae60; stroke-width: 2.5; stroke-linecap: round"/>
   </g>
   <g id="patch_8">
    <path d="M 577.945521 162.432 
Q 602.400473 162.432 624.06034 162.432 
" style="fill: none; stroke: #27ae60; stroke-width: 2.5; stroke-linecap: round"/>
    <path d="M 620.06034 160.432 
L 624.06034 162.432 
L 620.06034 164.432 
" style="fill: none; stroke: #27ae60; stroke-width: 2.5; stroke-linecap: round"/>
   </g>
   <g id="text_5">
    <!-- Forward Pass: signal flows right -->
    <g style="fill: #27ae60" transform="translate(343.40599 78.845538) scale(0.14 -0.14)">
     <defs>
      <path id="DejaVuSans-Bold-46" d="M 588 4666 
L 3834 4666 
L 3834 3756 
L 1791 3756 
L 1791 2888 
L 3713 2888 
L 3713 1978 
L 1791 1978 
L 1791 0 
L 588 0 
L 588 4666 
z
" transform="scale(0.015625)"/>
      <path id="DejaVuSans-Bold-64" d="M 2919 2988 
L 2919 4863 
L 4044 4863 
L 4044 0 
L 2919 0 
L 2919 506 
Q 2688 197 2409 53 
Q 2131 -91 1766 -91 
Q 1119 -91 703 423 
Q 288 938 288 1747 
Q 288 2556 703 3070 
Q 1119 3584 1766 3584 
Q 2128 3584 2408 3439 
Q 2688 3294 2919 2988 
z
M 2181 722 
Q 2541 722 2730 984 
Q 2919 1247 2919 1747 
Q 2919 2247 2730 2509 
Q 2541 2772 2181 2772 
Q 1825 2772 1636 2509 
Q 1447 2247 1447 1747 
Q 1447 1247 1636 984 
Q 1825 722 2181 722 
z
" transform="scale(0.015625)"/>
      <path id="DejaVuSans-Bold-50" d="M 588 4666 
L 2584 4666 
Q 3475 4666 3951 4270 
Q 4428 3875 4428 3144 
Q 4428 2409 3951 2014 
Q 3475 1619 2584 1619 
L 1791 1619 
L 1791 0 
L 588 0 
L 588 4666 
z
M 1791 3794 
L 1791 2491 
L 2456 2491 
Q 2806 2491 2997 2661 
Q 3188 2831 3188 3144 
Q 3188 3456 2997 3625 
Q 2806 3794 2456 3794 
L 1791 3794 
z
" transform="scale(0.015625)"/>
      <path id="DejaVuSans-Bold-3a" d="M 716 3500 
L 1844 3500 
L 1844 2291 
L 716 2291 
L 716 3500 
z
M 716 1209 
L 1844 1209 
L 1844 0 
L 716 0 
L 716 1209 
z
" transform="scale(0.015625)"/>
      <path id="DejaVuSans-Bold-67" d="M 2919 594 
Q 2688 288 2409 144 
Q 2131 0 1766 0 
Q 1125 0 706 504 
Q 288 1009 288 1791 
Q 288 2575 706 3076 
Q 1125 3578 1766 3578 
Q 2131 3578 2409 3434 
Q 2688 3291 2919 2981 
L 2919 3500 
L 4044 3500 
L 4044 353 
Q 4044 -491 3511 -936 
Q 2978 -1381 1966 -1381 
Q 1638 -1381 1331 -1331 
Q 1025 -1281 716 -1178 
L 716 -306 
Q 1009 -475 1290 -558 
Q 1572 -641 1856 -641 
Q 2406 -641 2662 -400 
Q 2919 -159 2919 353 
L 2919 594 
z
M 2181 2772 
Q 1834 2772 1640 2515 
Q 1447 2259 1447 1791 
Q 1447 1309 1634 1061 
Q 1822 813 2181 813 
Q 2531 813 2725 1069 
Q 2919 1325 2919 1791 
Q 2919 2259 2725 2515 
Q 2531 2772 2181 2772 
z
" transform="scale(0.015625)"/>
      <path id="DejaVuSans-Bold-6c" d="M 538 4863 
L 1656 4863 
L 1656 0 
L 538 0 
L 538 4863 
z
" transform="scale(0.015625)"/>
      <path id="DejaVuSans-Bold-66" d="M 2841 4863 
L 2841 4128 
L 2222 4128 
Q 1984 4128 1890 4042 
Q 1797 3956 1797 3744 
L 1797 3500 
L 2753 3500 
L 2753 2700 
L 1797 2700 
L 1797 0 
L 678 0 
L 678 2700 
L 122 2700 
L 122 3500 
L 678 3500 
L 678 3744 
Q 678 4316 997 4589 
Q 1316 4863 1984 4863 
L 2841 4863 
z
" transform="scale(0.015625)"/>
      <path id="DejaVuSans-Bold-68" d="M 4056 2131 
L 4056 0 
L 2931 0 
L 2931 347 
L 2931 1625 
Q 2931 2084 2911 2256 
Q 2891 2428 2841 2509 
Q 2775 2619 2662 2680 
Q 2550 2741 2406 2741 
Q 2056 2741 1856 2470 
Q 1656 2200 1656 1722 
L 1656 0 
L 538 0 
L 538 4863 
L 1656 4863 
L 1656 2988 
Q 1909 3294 2193 3439 
Q 2478 3584 2822 3584 
Q 3428 3584 3742 3212 
Q 4056 2841 4056 2131 
z
" transform="scale(0.015625)"/>
     </defs>
     <use xlink:href="#DejaVuSans-Bold-46"/>
     <use xlink:href="#DejaVuSans-Bold-6f" transform="translate(64.310547 0)"/>
     <use xlink:href="#DejaVuSans-Bold-72" transform="translate(133.011719 0)"/>
     <use xlink:href="#DejaVuSans-Bold-77" transform="translate(182.328125 0)"/>
     <use xlink:href="#DejaVuSans-Bold-61" transform="translate(274.710938 0)"/>
     <use xlink:href="#DejaVuSans-Bold-72" transform="translate(342.191406 0)"/>
     <use xlink:href="#DejaVuSans-Bold-64" transform="translate(391.507812 0)"/>
     <use xlink:href="#DejaVuSans-Bold-20" transform="translate(463.089844 0)"/>
     <use xlink:href="#DejaVuSans-Bold-50" transform="translate(497.904297 0)"/>
     <use xlink:href="#DejaVuSans-Bold-61" transform="translate(568.570312 0)"/>
     <use xlink:href="#DejaVuSans-Bold-73" transform="translate(636.050781 0)"/>
     <use xlink:href="#DejaVuSans-Bold-73" transform="translate(695.572266 0)"/>
     <use xlink:href="#DejaVuSans-Bold-3a" transform="translate(755.09375 0)"/>
     <use xlink:href="#DejaVuSans-Bold-20" transform="translate(795.083984 0)"/>
     <use xlink:href="#DejaVuSans-Bold-73" transform="translate(829.898438 0)"/>
     <use xlink:href="#DejaVuSans-Bold-69" transform="translate(889.419922 0)"/>
     <use xlink:href="#DejaVuSans-Bold-67" transform="translate(923.697266 0)"/>
     <use xlink:href="#DejaVuSans-Bold-6e" transform="translate(995.279297 0)"/>
     <use xlink:href="#DejaVuSans-Bold-61" transform="translate(1066.470703 0)"/>
     <use xlink:href="#DejaVuSans-Bold-6c" transform="translate(1133.951172 0)"/>
     <use xlink:href="#DejaVuSans-Bold-20" transform="translate(1168.228516 0)"/>
     <use xlink:href="#DejaVuSans-Bold-66" transform="translate(1203.042969 0)"/>
     <use xlink:href="#DejaVuSans-Bold-6c" transform="translate(1246.548828 0)"/>
     <use xlink:href="#DejaVuSans-Bold-6f" transform="translate(1280.826172 0)"/>
     <use xlink:href="#DejaVuSans-Bold-77" transform="translate(1349.527344 0)"/>
     <use xlink:href="#DejaVuSans-Bold-73" transform="translate(1441.910156 0)"/>
     <use xlink:href="#DejaVuSans-Bold-20" transform="translate(1501.431641 0)"/>
     <use xlink:href="#DejaVuSans-Bold-72" transform="translate(1536.246094 0)"/>
     <use xlink:href="#DejaVuSans-Bold-69" transform="translate(1585.5625 0)"/>
     <use xlink:href="#DejaVuSans-Bold-67" transform="translate(1619.839844 0)"/>
     <use xlink:href="#DejaVuSans-Bold-68" transform="translate(1691.421875 0)"/>
     <use xlink:href="#DejaVuSans-Bold-74" transform="translate(1762.613281 0)"/>
    </g>
   </g>
   <g id="patch_9">
    <path d="M 626.854479 210.195692 
Q 602.399527 210.195692 580.73966 210.195692 
" style="fill: none; stroke: #e74c3c; stroke-width: 2.5; stroke-linecap: round"/>
    <path d="M 584.73966 212.195692 
L 580.73966 210.195692 
L 584.73966 208.195692 
" style="fill: none; stroke: #e74c3c; stroke-width: 2.5; stroke-linecap: round"/>
   </g>
   <g id="patch_10">
    <path d="M 428.454479 210.195692 
Q 403.999527 210.195692 382.33966 210.195692 
" style="fill: none; stroke: #e74c3c; stroke-width: 2.5; stroke-linecap: round"/>
    <path d="M 386.33966 212.195692 
L 382.33966 210.195692 
L 386.33966 208.195692 
" style="fill: none; stroke: #e74c3c; stroke-width: 2.5; stroke-linecap: round"/>
   </g>
   <g id="patch_11">
    <path d="M 230.054479 210.195692 
Q 205.599527 210.195692 183.93966 210.195692 
" style="fill: none; stroke: #e74c3c; stroke-width: 2.5; stroke-linecap: round"/>
    <path d="M 187.93966 212.195692 
L 183.93966 210.195692 
L 187.93966 208.195692 
" style="fill: none; stroke: #e74c3c; stroke-width: 2.5; stroke-linecap: round"/>
   </g>
   <g id="text_6">
    <!-- Backward Pass: gradient flows left -->
    <g style="fill: #e74c3c" transform="translate(332.96724 305.723077) scale(0.14 -0.14)">
     <defs>
      <path id="DejaVuSans-Bold-42" d="M 2456 2859 
Q 2741 2859 2887 2984 
Q 3034 3109 3034 3353 
Q 3034 3594 2887 3720 
Q 2741 3847 2456 3847 
L 1791 3847 
L 1791 2859 
L 2456 2859 
z
M 2497 819 
Q 2859 819 3042 972 
Q 3225 1125 3225 1434 
Q 3225 1738 3044 1889 
Q 2863 2041 2497 2041 
L 1791 2041 
L 1791 819 
L 2497 819 
z
M 3616 2497 
Q 4003 2384 4215 2081 
Q 4428 1778 4428 1338 
Q 4428 663 3972 331 
Q 3516 0 2584 0 
L 588 0 
L 588 4666 
L 2394 4666 
Q 3366 4666 3802 4372 
Q 4238 4078 4238 3431 
Q 4238 3091 4078 2852 
Q 3919 2613 3616 2497 
z
" transform="scale(0.015625)"/>
      <path id="DejaVuSans-Bold-6b" d="M 538 4863 
L 1656 4863 
L 1656 2216 
L 2944 3500 
L 4244 3500 
L 2534 1894 
L 4378 0 
L 3022 0 
L 1656 1459 
L 1656 0 
L 538 0 
L 538 4863 
z
" transform="scale(0.015625)"/>
     </defs>
     <use xlink:href="#DejaVuSans-Bold-42"/>
     <use xlink:href="#DejaVuSans-Bold-61" transform="translate(76.220703 0)"/>
     <use xlink:href="#DejaVuSans-Bold-63" transform="translate(143.701172 0)"/>
     <use xlink:href="#DejaVuSans-Bold-6b" transform="translate(202.978516 0)"/>
     <use xlink:href="#DejaVuSans-Bold-77" transform="translate(269.482422 0)"/>
     <use xlink:href="#DejaVuSans-Bold-61" transform="translate(361.865234 0)"/>
     <use xlink:href="#DejaVuSans-Bold-72" transform="translate(429.345703 0)"/>
     <use xlink:href="#DejaVuSans-Bold-64" transform="translate(478.662109 0)"/>
     <use xlink:href="#DejaVuSans-Bold-20" transform="translate(550.244141 0)"/>
     <use xlink:href="#DejaVuSans-Bold-50" transform="translate(585.058594 0)"/>
     <use xlink:href="#DejaVuSans-Bold-61" transform="translate(655.724609 0)"/>
     <use xlink:href="#DejaVuSans-Bold-73" transform="translate(723.205078 0)"/>
     <use xlink:href="#DejaVuSans-Bold-73" transform="translate(782.726562 0)"/>
     <use xlink:href="#DejaVuSans-Bold-3a" transform="translate(842.248047 0)"/>
     <use xlink:href="#DejaVuSans-Bold-20" transform="translate(882.238281 0)"/>
     <use xlink:href="#DejaVuSans-Bold-67" transform="translate(917.052734 0)"/>
     <use xlink:href="#DejaVuSans-Bold-72" transform="translate(988.634766 0)"/>
     <use xlink:href="#DejaVuSans-Bold-61" transform="translate(1037.951172 0)"/>
     <use xlink:href="#DejaVuSans-Bold-64" transform="translate(1105.431641 0)"/>
     <use xlink:href="#DejaVuSans-Bold-69" transform="translate(1177.013672 0)"/>
     <use xlink:href="#DejaVuSans-Bold-65" transform="translate(1211.291016 0)"/>
     <use xlink:href="#DejaVuSans-Bold-6e" transform="translate(1279.113281 0)"/>
     <use xlink:href="#DejaVuSans-Bold-74" transform="translate(1350.304688 0)"/>
     <use xlink:href="#DejaVuSans-Bold-20" transform="translate(1398.107422 0)"/>
     <use xlink:href="#DejaVuSans-Bold-66" transform="translate(1432.921875 0)"/>
     <use xlink:href="#DejaVuSans-Bold-6c" transform="translate(1476.427734 0)"/>
     <use xlink:href="#DejaVuSans-Bold-6f" transform="translate(1510.705078 0)"/>
     <use xlink:href="#DejaVuSans-Bold-77" transform="translate(1579.40625 0)"/>
     <use xlink:href="#DejaVuSans-Bold-73" transform="translate(1671.789062 0)"/>
     <use xlink:href="#DejaVuSans-Bold-20" transform="translate(1731.310547 0)"/>
     <use xlink:href="#DejaVuSans-Bold-6c" transform="translate(1766.125 0)"/>
     <use xlink:href="#DejaVuSans-Bold-65" transform="translate(1800.402344 0)"/>
     <use xlink:href="#DejaVuSans-Bold-66" transform="translate(1868.224609 0)"/>
     <use xlink:href="#DejaVuSans-Bold-74" transform="translate(1911.730469 0)"/>
    </g>
   </g>
   <g id="text_7">
    <g id="patch_12">
     <path d="M 178.019219 362.109738 
L 233.180781 362.109738 
Q 236.480781 362.109738 236.480781 358.809738 
L 236.480781 348.1638 
Q 236.480781 344.8638 233.180781 344.8638 
L 178.019219 344.8638 
Q 174.719219 344.8638 174.719219 348.1638 
L 174.719219 358.809738 
Q 174.719219 362.109738 178.019219 362.109738 
z
" style="fill: #fff5f5; opacity: 0.8; stroke: #e74c3c; stroke-linejoin: miter"/>
    </g>
    <!-- dz/dw = x -->
    <g style="fill: #e74c3c" transform="translate(178.019219 356.522082) scale(0.11 -0.11)">
     <defs>
      <path id="DejaVuSans-Oblique-64" d="M 2675 525 
Q 2444 222 2128 65 
Q 1813 -91 1428 -91 
Q 903 -91 598 267 
Q 294 625 294 1247 
Q 294 1766 478 2236 
Q 663 2706 1013 3078 
Q 1244 3325 1534 3454 
Q 1825 3584 2144 3584 
Q 2481 3584 2739 3421 
Q 2997 3259 3138 2956 
L 3513 4863 
L 4091 4863 
L 3144 0 
L 2566 0 
L 2675 525 
z
M 891 1350 
Q 891 897 1095 644 
Q 1300 391 1663 391 
Q 1931 391 2161 520 
Q 2391 650 2566 903 
Q 2750 1166 2856 1509 
Q 2963 1853 2963 2188 
Q 2963 2622 2758 2865 
Q 2553 3109 2194 3109 
Q 1922 3109 1687 2981 
Q 1453 2853 1288 2613 
Q 1106 2353 998 2009 
Q 891 1666 891 1350 
z
" transform="scale(0.015625)"/>
      <path id="DejaVuSans-Oblique-7a" d="M 744 3500 
L 3475 3500 
L 3372 2975 
L 738 459 
L 2913 459 
L 2822 0 
L -19 0 
L 84 525 
L 2719 3041 
L 653 3041 
L 744 3500 
z
" transform="scale(0.015625)"/>
      <path id="DejaVuSans-Oblique-2f" d="M 2175 4666 
L 2731 4666 
L 84 -594 
L -469 -594 
L 2175 4666 
z
" transform="scale(0.015625)"/>
      <path id="DejaVuSans-Oblique-77" d="M 544 3500 
L 1113 3500 
L 1259 684 
L 2566 3500 
L 3231 3500 
L 3425 684 
L 4666 3500 
L 5241 3500 
L 3641 0 
L 2969 0 
L 2797 2900 
L 1459 0 
L 781 0 
L 544 3500 
z
" transform="scale(0.015625)"/>
      <path id="DejaVuSans-Oblique-20" transform="scale(0.015625)"/>
      <path id="DejaVuSans-Oblique-3d" d="M 678 2906 
L 4684 2906 
L 4684 2381 
L 678 2381 
L 678 2906 
z
M 678 1631 
L 4684 1631 
L 4684 1100 
L 678 1100 
L 678 1631 
z
" transform="scale(0.015625)"/>
      <path id="DejaVuSans-Oblique-78" d="M 3841 3500 
L 2234 1784 
L 3219 0 
L 2559 0 
L 1819 1388 
L 531 0 
L -166 0 
L 1556 1844 
L 641 3500 
L 1300 3500 
L 1972 2234 
L 3144 3500 
L 3841 3500 
z
" transform="scale(0.015625)"/>
     </defs>
     <use xlink:href="#DejaVuSans-Oblique-64"/>
     <use xlink:href="#DejaVuSans-Oblique-7a" transform="translate(63.476562 0)"/>
     <use xlink:href="#DejaVuSans-Oblique-2f" transform="translate(115.966797 0)"/>
     <use xlink:href="#DejaVuSans-Oblique-64" transform="translate(149.658203 0)"/>
     <use xlink:href="#DejaVuSans-Oblique-77" transform="translate(213.134766 0)"/>
     <use xlink:href="#DejaVuSans-Oblique-20" transform="translate(294.921875 0)"/>
     <use xlink:href="#DejaVuSans-Oblique-3d" transform="translate(326.708984 0)"/>
     <use xlink:href="#DejaVuSans-Oblique-20" transform="translate(410.498047 0)"/>
     <use xlink:href="#DejaVuSans-Oblique-78" transform="translate(442.285156 0)"/>
    </g>
   </g>
   <g id="text_8">
    <g id="patch_13">
     <path d="M 364.494531 368.268535 
L 443.505469 368.268535 
Q 446.805469 368.268535 446.805469 364.968535 
L 446.805469 342.005004 
Q 446.805469 338.705004 443.505469 338.705004 
L 364.494531 338.705004 
Q 361.194531 338.705004 361.194531 342.005004 
L 361.194531 364.968535 
Q 361.194531 368.268535 364.494531 368.268535 
z
" style="fill: #fff5f5; opacity: 0.8; stroke: #e74c3c; stroke-linejoin: miter"/>
    </g>
    <!-- da/dz = 1 or 0 -->
    <g style="fill: #e74c3c" transform="translate(364.681016 350.363285) scale(0.11 -0.11)">
     <defs>
      <path id="DejaVuSans-Oblique-61" d="M 3438 1997 
L 3047 0 
L 2472 0 
L 2578 531 
Q 2325 219 2001 64 
Q 1678 -91 1281 -91 
Q 834 -91 548 182 
Q 263 456 263 884 
Q 263 1497 752 1853 
Q 1241 2209 2100 2209 
L 2900 2209 
L 2931 2363 
Q 2938 2388 2941 2417 
Q 2944 2447 2944 2509 
Q 2944 2788 2717 2942 
Q 2491 3097 2081 3097 
Q 1800 3097 1504 3025 
Q 1209 2953 897 2809 
L 997 3341 
Q 1322 3463 1633 3523 
Q 1944 3584 2234 3584 
Q 2853 3584 3176 3315 
Q 3500 3047 3500 2534 
Q 3500 2431 3484 2292 
Q 3469 2153 3438 1997 
z
M 2816 1759 
L 2241 1759 
Q 1534 1759 1195 1570 
Q 856 1381 856 984 
Q 856 709 1029 553 
Q 1203 397 1509 397 
Q 1978 397 2328 733 
Q 2678 1069 2791 1631 
L 2816 1759 
z
" transform="scale(0.015625)"/>
      <path id="DejaVuSans-Oblique-31" d="M 416 531 
L 1447 531 
L 2144 4122 
L 978 3897 
L 1088 4441 
L 2247 4666 
L 2881 4666 
L 2075 531 
L 3103 531 
L 3003 0 
L 313 0 
L 416 531 
z
" transform="scale(0.015625)"/>
      <path id="DejaVuSans-Oblique-6f" d="M 1625 -91 
Q 1009 -91 651 289 
Q 294 669 294 1325 
Q 294 1706 417 2101 
Q 541 2497 738 2766 
Q 1047 3184 1428 3384 
Q 1809 3584 2291 3584 
Q 2888 3584 3255 3212 
Q 3622 2841 3622 2241 
Q 3622 1825 3500 1412 
Q 3378 1000 3181 728 
Q 2875 309 2494 109 
Q 2113 -91 1625 -91 
z
M 891 1344 
Q 891 869 1089 633 
Q 1288 397 1691 397 
Q 2269 397 2648 901 
Q 3028 1406 3028 2181 
Q 3028 2634 2825 2865 
Q 2622 3097 2228 3097 
Q 1903 3097 1650 2945 
Q 1397 2794 1197 2484 
Q 1050 2253 970 1956 
Q 891 1659 891 1344 
z
" transform="scale(0.015625)"/>
      <path id="DejaVuSans-Oblique-72" d="M 2853 2969 
Q 2766 3016 2653 3041 
Q 2541 3066 2413 3066 
Q 1953 3066 1609 2717 
Q 1266 2369 1153 1784 
L 800 0 
L 225 0 
L 909 3500 
L 1484 3500 
L 1375 2956 
Q 1603 3259 1920 3421 
Q 2238 3584 2597 3584 
Q 2691 3584 2781 3573 
Q 2872 3563 2963 3538 
L 2853 2969 
z
" transform="scale(0.015625)"/>
      <path id="DejaVuSans-Oblique-30" d="M 2444 4750 
Q 3078 4750 3414 4328 
Q 3750 3906 3750 3116 
Q 3750 2516 3592 1923 
Q 3434 1331 3150 863 
Q 2859 394 2467 151 
Q 2075 -91 1600 -91 
Q 988 -91 653 334 
Q 319 759 319 1544 
Q 319 2138 480 2733 
Q 641 3328 928 3794 
Q 1216 4263 1602 4506 
Q 1988 4750 2444 4750 
z
M 2406 4250 
Q 2169 4250 1955 4123 
Q 1741 3997 1569 3750 
Q 1281 3338 1111 2720 
Q 941 2103 941 1453 
Q 941 938 1123 673 
Q 1306 409 1663 409 
Q 1913 409 2125 536 
Q 2338 663 2509 909 
Q 2794 1319 2961 1936 
Q 3128 2553 3128 3206 
Q 3128 3722 2945 3986 
Q 2763 4250 2406 4250 
z
" transform="scale(0.015625)"/>
     </defs>
     <use xlink:href="#DejaVuSans-Oblique-64"/>
     <use xlink:href="#DejaVuSans-Oblique-61" transform="translate(63.476562 0)"/>
     <use xlink:href="#DejaVuSans-Oblique-2f" transform="translate(124.755859 0)"/>
     <use xlink:href="#DejaVuSans-Oblique-64" transform="translate(158.447266 0)"/>
     <use xlink:href="#DejaVuSans-Oblique-7a" transform="translate(221.923828 0)"/>
     <use xlink:href="#DejaVuSans-Oblique-20" transform="translate(274.414062 0)"/>
     <use xlink:href="#DejaVuSans-Oblique-3d" transform="translate(306.201172 0)"/>
     <use xlink:href="#DejaVuSans-Oblique-20" transform="translate(389.990234 0)"/>
     <use xlink:href="#DejaVuSans-Oblique-31" transform="translate(421.777344 0)"/>
     <use xlink:href="#DejaVuSans-Oblique-20" transform="translate(485.400391 0)"/>
     <use xlink:href="#DejaVuSans-Oblique-6f" transform="translate(517.1875 0)"/>
     <use xlink:href="#DejaVuSans-Oblique-72" transform="translate(578.369141 0)"/>
     <use xlink:href="#DejaVuSans-Oblique-20" transform="translate(619.482422 0)"/>
     <use xlink:href="#DejaVuSans-Oblique-30" transform="translate(651.269531 0)"/>
    </g>
    <!-- (ReLU's valve) -->
    <g style="fill: #e74c3c" transform="translate(364.494531 362.680879) scale(0.11 -0.11)">
     <defs>
      <path id="DejaVuSans-Oblique-28" d="M 2731 4856 
Q 1903 3822 1495 2892 
Q 1088 1963 1088 1100 
Q 1088 606 1206 120 
Q 1325 -366 1563 -844 
L 1063 -844 
Q 775 -306 634 201 
Q 494 709 494 1197 
Q 494 2125 923 3036 
Q 1353 3947 2222 4856 
L 2731 4856 
z
" transform="scale(0.015625)"/>
      <path id="DejaVuSans-Oblique-52" d="M 1613 4147 
L 1294 2491 
L 2106 2491 
Q 2584 2491 2879 2755 
Q 3175 3019 3175 3444 
Q 3175 3784 2976 3965 
Q 2778 4147 2406 4147 
L 1613 4147 
z
M 2772 2241 
Q 2972 2194 3105 2009 
Q 3238 1825 3413 1275 
L 3809 0 
L 3144 0 
L 2778 1197 
Q 2638 1659 2453 1815 
Q 2269 1972 1888 1972 
L 1191 1972 
L 806 0 
L 172 0 
L 1081 4666 
L 2503 4666 
Q 3150 4666 3495 4373 
Q 3841 4081 3841 3531 
Q 3841 3044 3547 2687 
Q 3253 2331 2772 2241 
z
" transform="scale(0.015625)"/>
      <path id="DejaVuSans-Oblique-65" d="M 3078 2063 
Q 3088 2113 3092 2166 
Q 3097 2219 3097 2272 
Q 3097 2653 2873 2875 
Q 2650 3097 2266 3097 
Q 1838 3097 1509 2826 
Q 1181 2556 1013 2059 
L 3078 2063 
z
M 3578 1613 
L 903 1613 
Q 884 1494 878 1425 
Q 872 1356 872 1306 
Q 872 872 1139 634 
Q 1406 397 1894 397 
Q 2269 397 2603 481 
Q 2938 566 3225 728 
L 3116 159 
Q 2806 34 2476 -28 
Q 2147 -91 1806 -91 
Q 1078 -91 686 257 
Q 294 606 294 1247 
Q 294 1794 489 2264 
Q 684 2734 1063 3103 
Q 1306 3334 1642 3459 
Q 1978 3584 2356 3584 
Q 2950 3584 3301 3228 
Q 3653 2872 3653 2272 
Q 3653 2128 3634 1964 
Q 3616 1800 3578 1613 
z
" transform="scale(0.015625)"/>
      <path id="DejaVuSans-Oblique-4c" d="M 1075 4666 
L 1709 4666 
L 909 525 
L 3181 525 
L 3078 0 
L 172 0 
L 1075 4666 
z
" transform="scale(0.015625)"/>
      <path id="DejaVuSans-Oblique-55" d="M 991 4666 
L 1625 4666 
L 1075 1831 
Q 1041 1641 1027 1517 
Q 1013 1394 1013 1300 
Q 1013 869 1253 645 
Q 1494 422 1959 422 
Q 2563 422 2898 753 
Q 3234 1084 3378 1831 
L 3928 4666 
L 4563 4666 
L 4000 1753 
Q 3816 809 3300 359 
Q 2784 -91 1888 -91 
Q 1188 -91 780 261 
Q 372 613 372 1216 
Q 372 1325 387 1461 
Q 403 1597 434 1753 
L 991 4666 
z
" transform="scale(0.015625)"/>
      <path id="DejaVuSans-Oblique-27" d="M 1147 4666 
L 1147 2931 
L 616 2931 
L 616 4666 
L 1147 4666 
z
" transform="scale(0.015625)"/>
      <path id="DejaVuSans-Oblique-73" d="M 3200 3397 
L 3091 2853 
Q 2863 2978 2609 3040 
Q 2356 3103 2088 3103 
Q 1634 3103 1373 2948 
Q 1113 2794 1113 2528 
Q 1113 2219 1719 2053 
Q 1766 2041 1788 2034 
L 1972 1978 
Q 2547 1819 2739 1644 
Q 2931 1469 2931 1166 
Q 2931 609 2489 259 
Q 2047 -91 1331 -91 
Q 1053 -91 747 -37 
Q 441 16 72 128 
L 184 722 
Q 500 559 806 475 
Q 1113 391 1394 391 
Q 1816 391 2080 572 
Q 2344 753 2344 1031 
Q 2344 1331 1650 1516 
L 1591 1531 
L 1394 1581 
Q 956 1697 753 1886 
Q 550 2075 550 2369 
Q 550 2928 970 3256 
Q 1391 3584 2113 3584 
Q 2397 3584 2667 3537 
Q 2938 3491 3200 3397 
z
" transform="scale(0.015625)"/>
      <path id="DejaVuSans-Oblique-76" d="M 459 3500 
L 1069 3500 
L 1581 525 
L 3256 3500 
L 3866 3500 
L 1875 0 
L 1100 0 
L 459 3500 
z
" transform="scale(0.015625)"/>
      <path id="DejaVuSans-Oblique-6c" d="M 1172 4863 
L 1747 4863 
L 800 0 
L 225 0 
L 1172 4863 
z
" transform="scale(0.015625)"/>
      <path id="DejaVuSans-Oblique-29" d="M -397 -844 
Q 434 191 840 1120 
Q 1247 2050 1247 2913 
Q 1247 3406 1130 3892 
Q 1013 4378 775 4856 
L 1275 4856 
Q 1563 4316 1703 3812 
Q 1844 3309 1844 2822 
Q 1844 1891 1411 973 
Q 978 56 116 -844 
L -397 -844 
z
" transform="scale(0.015625)"/>
     </defs>
     <use xlink:href="#DejaVuSans-Oblique-28"/>
     <use xlink:href="#DejaVuSans-Oblique-52" transform="translate(39.013672 0)"/>
     <use xlink:href="#DejaVuSans-Oblique-65" transform="translate(108.496094 0)"/>
     <use xlink:href="#DejaVuSans-Oblique-4c" transform="translate(170.019531 0)"/>
     <use xlink:href="#DejaVuSans-Oblique-55" transform="translate(225.732422 0)"/>
     <use xlink:href="#DejaVuSans-Oblique-27" transform="translate(298.925781 0)"/>
     <use xlink:href="#DejaVuSans-Oblique-73" transform="translate(326.416016 0)"/>
     <use xlink:href="#DejaVuSans-Oblique-20" transform="translate(378.515625 0)"/>
     <use xlink:href="#DejaVuSans-Oblique-76" transform="translate(410.302734 0)"/>
     <use xlink:href="#DejaVuSans-Oblique-61" transform="translate(469.482422 0)"/>
     <use xlink:href="#DejaVuSans-Oblique-6c" transform="translate(530.761719 0)"/>
     <use xlink:href="#DejaVuSans-Oblique-76" transform="translate(558.544922 0)"/>
     <use xlink:href="#DejaVuSans-Oblique-65" transform="translate(617.724609 0)"/>
     <use xlink:href="#DejaVuSans-Oblique-29" transform="translate(679.248047 0)"/>
    </g>
   </g>
   <g id="text_9">
    <g id="patch_14">
     <path d="M 562.622969 362.109738 
L 642.177031 362.109738 
Q 645.477031 362.109738 645.477031 358.809738 
L 645.477031 348.1638 
Q 645.477031 344.8638 642.177031 344.8638 
L 562.622969 344.8638 
Q 559.322969 344.8638 559.322969 348.1638 
L 559.322969 358.809738 
Q 559.322969 362.109738 562.622969 362.109738 
z
" style="fill: #fff5f5; opacity: 0.8; stroke: #e74c3c; stroke-linejoin: miter"/>
    </g>
    <!-- dL/da = 2(a-y) -->
    <g style="fill: #e74c3c" transform="translate(562.622969 356.522082) scale(0.11 -0.11)">
     <defs>
      <path id="DejaVuSans-Oblique-32" d="M 2950 2253 
L 934 525 
L 3163 525 
L 3053 0 
L 25 0 
L 128 531 
L 2234 2338 
Q 2656 2703 2832 2979 
Q 3009 3256 3009 3547 
Q 3009 3850 2796 4040 
Q 2584 4231 2241 4231 
Q 1944 4231 1581 4125 
Q 1219 4019 806 3816 
L 922 4441 
Q 1309 4594 1662 4672 
Q 2016 4750 2316 4750 
Q 2928 4750 3301 4425 
Q 3675 4100 3675 3572 
Q 3675 3216 3497 2892 
Q 3319 2569 2950 2253 
z
" transform="scale(0.015625)"/>
      <path id="DejaVuSans-Oblique-2d" d="M 391 2009 
L 2075 2009 
L 1978 1497 
L 288 1497 
L 391 2009 
z
" transform="scale(0.015625)"/>
      <path id="DejaVuSans-Oblique-79" d="M 1588 -325 
Q 1188 -997 936 -1164 
Q 684 -1331 294 -1331 
L -159 -1331 
L -63 -850 
L 269 -850 
Q 509 -850 678 -719 
Q 847 -588 1056 -206 
L 1234 128 
L 459 3500 
L 1069 3500 
L 1650 819 
L 3256 3500 
L 3859 3500 
L 1588 -325 
z
" transform="scale(0.015625)"/>
     </defs>
     <use xlink:href="#DejaVuSans-Oblique-64"/>
     <use xlink:href="#DejaVuSans-Oblique-4c" transform="translate(63.476562 0)"/>
     <use xlink:href="#DejaVuSans-Oblique-2f" transform="translate(119.189453 0)"/>
     <use xlink:href="#DejaVuSans-Oblique-64" transform="translate(152.880859 0)"/>
     <use xlink:href="#DejaVuSans-Oblique-61" transform="translate(216.357422 0)"/>
     <use xlink:href="#DejaVuSans-Oblique-20" transform="translate(277.636719 0)"/>
     <use xlink:href="#DejaVuSans-Oblique-3d" transform="translate(309.423828 0)"/>
     <use xlink:href="#DejaVuSans-Oblique-20" transform="translate(393.212891 0)"/>
     <use xlink:href="#DejaVuSans-Oblique-32" transform="translate(425 0)"/>
     <use xlink:href="#DejaVuSans-Oblique-28" transform="translate(488.623047 0)"/>
     <use xlink:href="#DejaVuSans-Oblique-61" transform="translate(527.636719 0)"/>
     <use xlink:href="#DejaVuSans-Oblique-2d" transform="translate(588.916016 0)"/>
     <use xlink:href="#DejaVuSans-Oblique-79" transform="translate(625 0)"/>
     <use xlink:href="#DejaVuSans-Oblique-29" transform="translate(684.179688 0)"/>
    </g>
   </g>
   <g id="text_10">
    <g id="patch_15">
     <path d="M 222.983958 399.963288 
L 717.282708 399.963288 
Q 722.082708 399.963288 722.082708 395.163288 
L 722.082708 383.455788 
Q 722.082708 378.655788 717.282708 378.655788 
L 222.983958 378.655788 
Q 218.183958 378.655788 218.183958 383.455788 
L 218.183958 395.163288 
Q 218.183958 399.963288 222.983958 399.963288 
z
" style="fill: #fef9e7; stroke: #f39c12; stroke-width: 1.5; stroke-linejoin: miter"/>
    </g>
    <!-- Total: dL/dw = 2(a-y) × (1 or 0) × x    ← product of local rates (gear train) -->
    <g transform="translate(222.983958 392.573913) scale(0.12 -0.12)">
     <defs>
      <path id="DejaVuSans-Bold-54" d="M 31 4666 
L 4331 4666 
L 4331 3756 
L 2784 3756 
L 2784 0 
L 1581 0 
L 1581 3756 
L 31 3756 
L 31 4666 
z
" transform="scale(0.015625)"/>
      <path id="DejaVuSans-Bold-2f" d="M 1644 4666 
L 2338 4666 
L 691 -594 
L 0 -594 
L 1644 4666 
z
" transform="scale(0.015625)"/>
      <path id="DejaVuSans-Bold-32" d="M 1844 884 
L 3897 884 
L 3897 0 
L 506 0 
L 506 884 
L 2209 2388 
Q 2438 2594 2547 2791 
Q 2656 2988 2656 3200 
Q 2656 3528 2436 3728 
Q 2216 3928 1850 3928 
Q 1569 3928 1234 3808 
Q 900 3688 519 3450 
L 519 4475 
Q 925 4609 1322 4679 
Q 1719 4750 2100 4750 
Q 2938 4750 3402 4381 
Q 3866 4013 3866 3353 
Q 3866 2972 3669 2642 
Q 3472 2313 2841 1759 
L 1844 884 
z
" transform="scale(0.015625)"/>
      <path id="DejaVuSans-Bold-d7" d="M 4563 3359 
L 3206 2003 
L 4563 653 
L 4038 128 
L 2681 1478 
L 1325 128 
L 800 653 
L 2156 2003 
L 800 3359 
L 1325 3884 
L 2681 2528 
L 4038 3884 
L 4563 3359 
z
" transform="scale(0.015625)"/>
      <path id="DejaVuSans-Bold-31" d="M 750 831 
L 1813 831 
L 1813 3847 
L 722 3622 
L 722 4441 
L 1806 4666 
L 2950 4666 
L 2950 831 
L 4013 831 
L 4013 0 
L 750 0 
L 750 831 
z
" transform="scale(0.015625)"/>
      <path id="DejaVuSans-Bold-30" d="M 2944 2338 
Q 2944 3213 2780 3570 
Q 2616 3928 2228 3928 
Q 1841 3928 1675 3570 
Q 1509 3213 1509 2338 
Q 1509 1453 1675 1090 
Q 1841 728 2228 728 
Q 2613 728 2778 1090 
Q 2944 1453 2944 2338 
z
M 4147 2328 
Q 4147 1169 3647 539 
Q 3147 -91 2228 -91 
Q 1306 -91 806 539 
Q 306 1169 306 2328 
Q 306 3491 806 4120 
Q 1306 4750 2228 4750 
Q 3147 4750 3647 4120 
Q 4147 3491 4147 2328 
z
" transform="scale(0.015625)"/>
      <path id="DejaVuSans-Bold-2190" d="M 313 1788 
L 313 2225 
L 1541 3453 
L 1994 3000 
L 1375 2381 
L 4997 2381 
L 4997 1631 
L 1375 1631 
L 1994 1013 
L 1541 559 
L 313 1788 
z
" transform="scale(0.015625)"/>
     </defs>
     <use xlink:href="#DejaVuSans-Bold-54"/>
     <use xlink:href="#DejaVuSans-Bold-6f" transform="translate(54.962891 0)"/>
     <use xlink:href="#DejaVuSans-Bold-74" transform="translate(123.664062 0)"/>
     <use xlink:href="#DejaVuSans-Bold-61" transform="translate(171.466797 0)"/>
     <use xlink:href="#DejaVuSans-Bold-6c" transform="translate(238.947266 0)"/>
     <use xlink:href="#DejaVuSans-Bold-3a" transform="translate(273.224609 0)"/>
     <use xlink:href="#DejaVuSans-Bold-20" transform="translate(313.214844 0)"/>
     <use xlink:href="#DejaVuSans-Bold-64" transform="translate(348.029297 0)"/>
     <use xlink:href="#DejaVuSans-Bold-4c" transform="translate(419.611328 0)"/>
     <use xlink:href="#DejaVuSans-Bold-2f" transform="translate(483.332031 0)"/>
     <use xlink:href="#DejaVuSans-Bold-64" transform="translate(519.855469 0)"/>
     <use xlink:href="#DejaVuSans-Bold-77" transform="translate(591.4375 0)"/>
     <use xlink:href="#DejaVuSans-Bold-20" transform="translate(683.820312 0)"/>
     <use xlink:href="#DejaVuSans-Bold-3d" transform="translate(718.634766 0)"/>
     <use xlink:href="#DejaVuSans-Bold-20" transform="translate(802.423828 0)"/>
     <use xlink:href="#DejaVuSans-Bold-32" transform="translate(837.238281 0)"/>
     <use xlink:href="#DejaVuSans-Bold-28" transform="translate(906.818359 0)"/>
     <use xlink:href="#DejaVuSans-Bold-61" transform="translate(952.521484 0)"/>
     <use xlink:href="#DejaVuSans-Bold-2d" transform="translate(1020.001953 0)"/>
     <use xlink:href="#DejaVuSans-Bold-79" transform="translate(1061.505859 0)"/>
     <use xlink:href="#DejaVuSans-Bold-29" transform="translate(1126.691406 0)"/>
     <use xlink:href="#DejaVuSans-Bold-20" transform="translate(1172.394531 0)"/>
     <use xlink:href="#DejaVuSans-Bold-d7" transform="translate(1207.208984 0)"/>
     <use xlink:href="#DejaVuSans-Bold-20" transform="translate(1290.998047 0)"/>
     <use xlink:href="#DejaVuSans-Bold-28" transform="translate(1325.8125 0)"/>
     <use xlink:href="#DejaVuSans-Bold-31" transform="translate(1371.515625 0)"/>
     <use xlink:href="#DejaVuSans-Bold-20" transform="translate(1441.095703 0)"/>
     <use xlink:href="#DejaVuSans-Bold-6f" transform="translate(1475.910156 0)"/>
     <use xlink:href="#DejaVuSans-Bold-72" transform="translate(1544.611328 0)"/>
     <use xlink:href="#DejaVuSans-Bold-20" transform="translate(1593.927734 0)"/>
     <use xlink:href="#DejaVuSans-Bold-30" transform="translate(1628.742188 0)"/>
     <use xlink:href="#DejaVuSans-Bold-29" transform="translate(1698.322266 0)"/>
     <use xlink:href="#DejaVuSans-Bold-20" transform="translate(1744.025391 0)"/>
     <use xlink:href="#DejaVuSans-Bold-d7" transform="translate(1778.839844 0)"/>
     <use xlink:href="#DejaVuSans-Bold-20" transform="translate(1862.628906 0)"/>
     <use xlink:href="#DejaVuSans-Bold-78" transform="translate(1897.443359 0)"/>
     <use xlink:href="#DejaVuSans-Bold-20" transform="translate(1961.945312 0)"/>
     <use xlink:href="#DejaVuSans-Bold-20" transform="translate(1996.759766 0)"/>
     <use xlink:href="#DejaVuSans-Bold-20" transform="translate(2031.574219 0)"/>
     <use xlink:href="#DejaVuSans-Bold-20" transform="translate(2066.388672 0)"/>
     <use xlink:href="#DejaVuSans-Bold-2190" transform="translate(2101.203125 0)"/>
     <use xlink:href="#DejaVuSans-Bold-20" transform="translate(2184.992188 0)"/>
     <use xlink:href="#DejaVuSans-Bold-70" transform="translate(2219.806641 0)"/>
     <use xlink:href="#DejaVuSans-Bold-72" transform="translate(2291.388672 0)"/>
     <use xlink:href="#DejaVuSans-Bold-6f" transform="translate(2340.705078 0)"/>
     <use xlink:href="#DejaVuSans-Bold-64" transform="translate(2409.40625 0)"/>
     <use xlink:href="#DejaVuSans-Bold-75" transform="translate(2480.988281 0)"/>
     <use xlink:href="#DejaVuSans-Bold-63" transform="translate(2552.179688 0)"/>
     <use xlink:href="#DejaVuSans-Bold-74" transform="translate(2611.457031 0)"/>
     <use xlink:href="#DejaVuSans-Bold-20" transform="translate(2659.259766 0)"/>
     <use xlink:href="#DejaVuSans-Bold-6f" transform="translate(2694.074219 0)"/>
     <use xlink:href="#DejaVuSans-Bold-66" transform="translate(2762.775391 0)"/>
     <use xlink:href="#DejaVuSans-Bold-20" transform="translate(2806.28125 0)"/>
     <use xlink:href="#DejaVuSans-Bold-6c" transform="translate(2841.095703 0)"/>
     <use xlink:href="#DejaVuSans-Bold-6f" transform="translate(2875.373047 0)"/>
     <use xlink:href="#DejaVuSans-Bold-63" transform="translate(2944.074219 0)"/>
     <use xlink:href="#DejaVuSans-Bold-61" transform="translate(3003.351562 0)"/>
     <use xlink:href="#DejaVuSans-Bold-6c" transform="translate(3070.832031 0)"/>
     <use xlink:href="#DejaVuSans-Bold-20" transform="translate(3105.109375 0)"/>
     <use xlink:href="#DejaVuSans-Bold-72" transform="translate(3139.923828 0)"/>
     <use xlink:href="#DejaVuSans-Bold-61" transform="translate(3189.240234 0)"/>
     <use xlink:href="#DejaVuSans-Bold-74" transform="translate(3256.720703 0)"/>
     <use xlink:href="#DejaVuSans-Bold-65" transform="translate(3304.523438 0)"/>
     <use xlink:href="#DejaVuSans-Bold-73" transform="translate(3372.345703 0)"/>
     <use xlink:href="#DejaVuSans-Bold-20" transform="translate(3431.867188 0)"/>
     <use xlink:href="#DejaVuSans-Bold-28" transform="translate(3466.681641 0)"/>
     <use xlink:href="#DejaVuSans-Bold-67" transform="translate(3512.384766 0)"/>
     <use xlink:href="#DejaVuSans-Bold-65" transform="translate(3583.966797 0)"/>
     <use xlink:href="#DejaVuSans-Bold-61" transform="translate(3651.789062 0)"/>
     <use xlink:href="#DejaVuSans-Bold-72" transform="translate(3719.269531 0)"/>
     <use xlink:href="#DejaVuSans-Bold-20" transform="translate(3768.585938 0)"/>
     <use xlink:href="#DejaVuSans-Bold-74" transform="translate(3803.400391 0)"/>
     <use xlink:href="#DejaVuSans-Bold-72" transform="translate(3851.203125 0)"/>
     <use xlink:href="#DejaVuSans-Bold-61" transform="translate(3900.519531 0)"/>
     <use xlink:href="#DejaVuSans-Bold-69" transform="translate(3968 0)"/>
     <use xlink:href="#DejaVuSans-Bold-6e" transform="translate(4002.277344 0)"/>
     <use xlink:href="#DejaVuSans-Bold-29" transform="translate(4073.46875 0)"/>
    </g>
   </g>
  </g>
 </g>
 <defs>
  <clipPath id="p1ee3a112eb">
   <rect x="7.2" y="7.2" width="892.8" height="388.08"/>
  </clipPath>
 </defs>
</svg>
