<?xml version="1.0" encoding="utf-8" standalone="no"?>
<!DOCTYPE svg PUBLIC "-//W3C//DTD SVG 1.1//EN"
  "http://www.w3.org/Graphics/SVG/1.1/DTD/svg11.dtd">
<svg xmlns:xlink="http://www.w3.org/1999/xlink" width="1144.411562pt" height="391.087656pt" viewBox="0 0 1144.411562 391.087656" xmlns="http://www.w3.org/2000/svg" version="1.1">
 <metadata>
  <rdf:RDF xmlns:dc="http://purl.org/dc/elements/1.1/" xmlns:cc="http://creativecommons.org/ns#" xmlns:rdf="http://www.w3.org/1999/02/22-rdf-syntax-ns#">
   <cc:Work>
    <dc:type rdf:resource="http://purl.org/dc/dcmitype/StillImage"/>
    <dc:date>2026-03-29T15:22:38.808429</dc:date>
    <dc:format>image/svg+xml</dc:format>
    <dc:creator>
     <cc:Agent>
      <dc:title>Matplotlib v3.10.8, https://matplotlib.org/</dc:title>
     </cc:Agent>
    </dc:creator>
   </cc:Work>
  </rdf:RDF>
 </metadata>
 <defs>
  <style type="text/css">*{stroke-linejoin: round; stroke-linecap: butt}</style>
 </defs>
 <g id="figure_1">
  <g id="patch_1">
   <path d="M 0 391.087656 
L 1144.411562 391.087656 
L 1144.411562 0 
L 0 0 
z
" style="fill: #ffffff"/>
  </g>
  <g id="axes_1">
   <g id="patch_2">
    <path d="M 42.620313 347.679395 
L 382.616979 347.679395 
L 382.616979 64.34884 
L 42.620313 64.34884 
z
" style="fill: #d5f5e3"/>
   </g>
   <g id="matplotlib.axis_1">
    <g id="xtick_1">
     <g id="line2d_1">
      <defs>
       <path id="m167a0738ea" d="M 0 0 
L 0 3.5 
" style="stroke: #000000; stroke-width: 0.8"/>
      </defs>
      <g>
       <use xlink:href="#m167a0738ea" x="42.620313" y="347.679395" style="stroke: #000000; stroke-width: 0.8"/>
      </g>
     </g>
     <g id="text_1">
      <!-- −3 -->
      <g transform="translate(35.249219 362.277833) scale(0.1 -0.1)">
       <defs>
        <path id="DejaVuSans-2212" d="M 678 2272 
L 4684 2272 
L 4684 1741 
L 678 1741 
L 678 2272 
z
" transform="scale(0.015625)"/>
        <path id="DejaVuSans-33" d="M 2597 2516 
Q 3050 2419 3304 2112 
Q 3559 1806 3559 1356 
Q 3559 666 3084 287 
Q 2609 -91 1734 -91 
Q 1441 -91 1130 -33 
Q 819 25 488 141 
L 488 750 
Q 750 597 1062 519 
Q 1375 441 1716 441 
Q 2309 441 2620 675 
Q 2931 909 2931 1356 
Q 2931 1769 2642 2001 
Q 2353 2234 1838 2234 
L 1294 2234 
L 1294 2753 
L 1863 2753 
Q 2328 2753 2575 2939 
Q 2822 3125 2822 3475 
Q 2822 3834 2567 4026 
Q 2313 4219 1838 4219 
Q 1578 4219 1281 4162 
Q 984 4106 628 3988 
L 628 4550 
Q 988 4650 1302 4700 
Q 1616 4750 1894 4750 
Q 2613 4750 3031 4423 
Q 3450 4097 3450 3541 
Q 3450 3153 3228 2886 
Q 3006 2619 2597 2516 
z
" transform="scale(0.015625)"/>
       </defs>
       <use xlink:href="#DejaVuSans-2212"/>
       <use xlink:href="#DejaVuSans-33" transform="translate(83.789062 0)"/>
      </g>
     </g>
    </g>
    <g id="xtick_2">
     <g id="line2d_2">
      <g>
       <use xlink:href="#m167a0738ea" x="99.286424" y="347.679395" style="stroke: #000000; stroke-width: 0.8"/>
      </g>
     </g>
     <g id="text_2">
      <!-- −2 -->
      <g transform="translate(91.91533 362.277833) scale(0.1 -0.1)">
       <defs>
        <path id="DejaVuSans-32" d="M 1228 531 
L 3431 531 
L 3431 0 
L 469 0 
L 469 531 
Q 828 903 1448 1529 
Q 2069 2156 2228 2338 
Q 2531 2678 2651 2914 
Q 2772 3150 2772 3378 
Q 2772 3750 2511 3984 
Q 2250 4219 1831 4219 
Q 1534 4219 1204 4116 
Q 875 4013 500 3803 
L 500 4441 
Q 881 4594 1212 4672 
Q 1544 4750 1819 4750 
Q 2544 4750 2975 4387 
Q 3406 4025 3406 3419 
Q 3406 3131 3298 2873 
Q 3191 2616 2906 2266 
Q 2828 2175 2409 1742 
Q 1991 1309 1228 531 
z
" transform="scale(0.015625)"/>
       </defs>
       <use xlink:href="#DejaVuSans-2212"/>
       <use xlink:href="#DejaVuSans-32" transform="translate(83.789062 0)"/>
      </g>
     </g>
    </g>
    <g id="xtick_3">
     <g id="line2d_3">
      <g>
       <use xlink:href="#m167a0738ea" x="155.952535" y="347.679395" style="stroke: #000000; stroke-width: 0.8"/>
      </g>
     </g>
     <g id="text_3">
      <!-- −1 -->
      <g transform="translate(148.581441 362.277833) scale(0.1 -0.1)">
       <defs>
        <path id="DejaVuSans-31" d="M 794 531 
L 1825 531 
L 1825 4091 
L 703 3866 
L 703 4441 
L 1819 4666 
L 2450 4666 
L 2450 531 
L 3481 531 
L 3481 0 
L 794 0 
L 794 531 
z
" transform="scale(0.015625)"/>
       </defs>
       <use xlink:href="#DejaVuSans-2212"/>
       <use xlink:href="#DejaVuSans-31" transform="translate(83.789062 0)"/>
      </g>
     </g>
    </g>
    <g id="xtick_4">
     <g id="line2d_4">
      <g>
       <use xlink:href="#m167a0738ea" x="212.618646" y="347.679395" style="stroke: #000000; stroke-width: 0.8"/>
      </g>
     </g>
     <g id="text_4">
      <!-- 0 -->
      <g transform="translate(209.437396 362.277833) scale(0.1 -0.1)">
       <defs>
        <path id="DejaVuSans-30" d="M 2034 4250 
Q 1547 4250 1301 3770 
Q 1056 3291 1056 2328 
Q 1056 1369 1301 889 
Q 1547 409 2034 409 
Q 2525 409 2770 889 
Q 3016 1369 3016 2328 
Q 3016 3291 2770 3770 
Q 2525 4250 2034 4250 
z
M 2034 4750 
Q 2819 4750 3233 4129 
Q 3647 3509 3647 2328 
Q 3647 1150 3233 529 
Q 2819 -91 2034 -91 
Q 1250 -91 836 529 
Q 422 1150 422 2328 
Q 422 3509 836 4129 
Q 1250 4750 2034 4750 
z
" transform="scale(0.015625)"/>
       </defs>
       <use xlink:href="#DejaVuSans-30"/>
      </g>
     </g>
    </g>
    <g id="xtick_5">
     <g id="line2d_5">
      <g>
       <use xlink:href="#m167a0738ea" x="269.284757" y="347.679395" style="stroke: #000000; stroke-width: 0.8"/>
      </g>
     </g>
     <g id="text_5">
      <!-- 1 -->
      <g transform="translate(266.103507 362.277833) scale(0.1 -0.1)">
       <use xlink:href="#DejaVuSans-31"/>
      </g>
     </g>
    </g>
    <g id="xtick_6">
     <g id="line2d_6">
      <g>
       <use xlink:href="#m167a0738ea" x="325.950868" y="347.679395" style="stroke: #000000; stroke-width: 0.8"/>
      </g>
     </g>
     <g id="text_6">
      <!-- 2 -->
      <g transform="translate(322.769618 362.277833) scale(0.1 -0.1)">
       <use xlink:href="#DejaVuSans-32"/>
      </g>
     </g>
    </g>
    <g id="xtick_7">
     <g id="line2d_7">
      <g>
       <use xlink:href="#m167a0738ea" x="382.616979" y="347.679395" style="stroke: #000000; stroke-width: 0.8"/>
      </g>
     </g>
     <g id="text_7">
      <!-- 3 -->
      <g transform="translate(379.435729 362.277833) scale(0.1 -0.1)">
       <use xlink:href="#DejaVuSans-33"/>
      </g>
     </g>
    </g>
    <g id="text_8">
     <!-- dim 1 -->
     <g transform="translate(198.41474 375.955958) scale(0.1 -0.1)">
      <defs>
       <path id="DejaVuSans-64" d="M 2906 2969 
L 2906 4863 
L 3481 4863 
L 3481 0 
L 2906 0 
L 2906 525 
Q 2725 213 2448 61 
Q 2172 -91 1784 -91 
Q 1150 -91 751 415 
Q 353 922 353 1747 
Q 353 2572 751 3078 
Q 1150 3584 1784 3584 
Q 2172 3584 2448 3432 
Q 2725 3281 2906 2969 
z
M 947 1747 
Q 947 1113 1208 752 
Q 1469 391 1925 391 
Q 2381 391 2643 752 
Q 2906 1113 2906 1747 
Q 2906 2381 2643 2742 
Q 2381 3103 1925 3103 
Q 1469 3103 1208 2742 
Q 947 2381 947 1747 
z
" transform="scale(0.015625)"/>
       <path id="DejaVuSans-69" d="M 603 3500 
L 1178 3500 
L 1178 0 
L 603 0 
L 603 3500 
z
M 603 4863 
L 1178 4863 
L 1178 4134 
L 603 4134 
L 603 4863 
z
" transform="scale(0.015625)"/>
       <path id="DejaVuSans-6d" d="M 3328 2828 
Q 3544 3216 3844 3400 
Q 4144 3584 4550 3584 
Q 5097 3584 5394 3201 
Q 5691 2819 5691 2113 
L 5691 0 
L 5113 0 
L 5113 2094 
Q 5113 2597 4934 2840 
Q 4756 3084 4391 3084 
Q 3944 3084 3684 2787 
Q 3425 2491 3425 1978 
L 3425 0 
L 2847 0 
L 2847 2094 
Q 2847 2600 2669 2842 
Q 2491 3084 2119 3084 
Q 1678 3084 1418 2786 
Q 1159 2488 1159 1978 
L 1159 0 
L 581 0 
L 581 3500 
L 1159 3500 
L 1159 2956 
Q 1356 3278 1631 3431 
Q 1906 3584 2284 3584 
Q 2666 3584 2933 3390 
Q 3200 3197 3328 2828 
z
" transform="scale(0.015625)"/>
       <path id="DejaVuSans-20" transform="scale(0.015625)"/>
      </defs>
      <use xlink:href="#DejaVuSans-64"/>
      <use xlink:href="#DejaVuSans-69" transform="translate(63.476562 0)"/>
      <use xlink:href="#DejaVuSans-6d" transform="translate(91.259766 0)"/>
      <use xlink:href="#DejaVuSans-20" transform="translate(188.671875 0)"/>
      <use xlink:href="#DejaVuSans-31" transform="translate(220.458984 0)"/>
     </g>
    </g>
   </g>
   <g id="matplotlib.axis_2">
    <g id="ytick_1">
     <g id="line2d_8">
      <defs>
       <path id="mba3591077e" d="M 0 0 
L -3.5 0 
" style="stroke: #000000; stroke-width: 0.8"/>
      </defs>
      <g>
       <use xlink:href="#mba3591077e" x="42.620313" y="319.34634" style="stroke: #000000; stroke-width: 0.8"/>
      </g>
     </g>
     <g id="text_9">
      <!-- −2 -->
      <g transform="translate(20.878125 323.145559) scale(0.1 -0.1)">
       <use xlink:href="#DejaVuSans-2212"/>
       <use xlink:href="#DejaVuSans-32" transform="translate(83.789062 0)"/>
      </g>
     </g>
    </g>
    <g id="ytick_2">
     <g id="line2d_9">
      <g>
       <use xlink:href="#mba3591077e" x="42.620313" y="262.680229" style="stroke: #000000; stroke-width: 0.8"/>
      </g>
     </g>
     <g id="text_10">
      <!-- −1 -->
      <g transform="translate(20.878125 266.479448) scale(0.1 -0.1)">
       <use xlink:href="#DejaVuSans-2212"/>
       <use xlink:href="#DejaVuSans-31" transform="translate(83.789062 0)"/>
      </g>
     </g>
    </g>
    <g id="ytick_3">
     <g id="line2d_10">
      <g>
       <use xlink:href="#mba3591077e" x="42.620313" y="206.014118" style="stroke: #000000; stroke-width: 0.8"/>
      </g>
     </g>
     <g id="text_11">
      <!-- 0 -->
      <g transform="translate(29.257813 209.813336) scale(0.1 -0.1)">
       <use xlink:href="#DejaVuSans-30"/>
      </g>
     </g>
    </g>
    <g id="ytick_4">
     <g id="line2d_11">
      <g>
       <use xlink:href="#mba3591077e" x="42.620313" y="149.348007" style="stroke: #000000; stroke-width: 0.8"/>
      </g>
     </g>
     <g id="text_12">
      <!-- 1 -->
      <g transform="translate(29.257813 153.147225) scale(0.1 -0.1)">
       <use xlink:href="#DejaVuSans-31"/>
      </g>
     </g>
    </g>
    <g id="ytick_5">
     <g id="line2d_12">
      <g>
       <use xlink:href="#mba3591077e" x="42.620313" y="92.681895" style="stroke: #000000; stroke-width: 0.8"/>
      </g>
     </g>
     <g id="text_13">
      <!-- 2 -->
      <g transform="translate(29.257813 96.481114) scale(0.1 -0.1)">
       <use xlink:href="#DejaVuSans-32"/>
      </g>
     </g>
    </g>
    <g id="text_14">
     <!-- dim 2 -->
     <g transform="translate(14.798438 220.218024) rotate(-90) scale(0.1 -0.1)">
      <use xlink:href="#DejaVuSans-64"/>
      <use xlink:href="#DejaVuSans-69" transform="translate(63.476562 0)"/>
      <use xlink:href="#DejaVuSans-6d" transform="translate(91.259766 0)"/>
      <use xlink:href="#DejaVuSans-20" transform="translate(188.671875 0)"/>
      <use xlink:href="#DejaVuSans-32" transform="translate(220.458984 0)"/>
     </g>
    </g>
   </g>
   <g id="line2d_13">
    <path d="M 42.620313 206.014118 
L 382.616979 206.014118 
" clip-path="url(#p0ed6c7822f)" style="fill: none; stroke: #cccccc; stroke-width: 0.8; stroke-linecap: square"/>
   </g>
   <g id="line2d_14">
    <path d="M 212.618646 347.679395 
L 212.618646 64.34884 
" clip-path="url(#p0ed6c7822f)" style="fill: none; stroke: #cccccc; stroke-width: 0.8; stroke-linecap: square"/>
   </g>
   <g id="line2d_15">
    <path d="M 248.097243 188.274819 
L 248.097243 188.274819 
L 248.097243 188.274819 
L 248.097243 188.274819 
L 248.097243 188.274819 
L 248.097243 188.274819 
L 248.097243 188.274819 
L 248.097243 188.274819 
L 248.097243 188.274819 
L 248.097243 188.274819 
L 248.097243 188.274819 
L 248.097243 188.274819 
L 248.097243 188.274819 
L 248.097243 188.274819 
L 248.097243 188.274819 
L 248.097243 188.274819 
L 248.097243 188.274819 
L 248.097243 188.274819 
L 248.097243 188.274819 
L 248.097243 188.274819 
L 248.097243 188.274819 
L 248.097243 188.274819 
L 248.097243 188.274819 
L 248.097243 188.274819 
L 248.097243 188.274819 
L 248.097243 188.274819 
L 248.097243 188.274819 
L 248.097243 188.274819 
L 248.097243 188.274819 
L 248.097243 188.274819 
" clip-path="url(#p0ed6c7822f)" style="fill: none; stroke: #9b59b6; stroke-width: 2; stroke-linecap: square"/>
   </g>
   <g id="patch_3">
    <path d="M 42.620313 347.679395 
L 42.620313 64.34884 
" style="fill: none; stroke: #000000; stroke-width: 0.8; stroke-linejoin: miter; stroke-linecap: square"/>
   </g>
   <g id="patch_4">
    <path d="M 382.616979 347.679395 
L 382.616979 64.34884 
" style="fill: none; stroke: #000000; stroke-width: 0.8; stroke-linejoin: miter; stroke-linecap: square"/>
   </g>
   <g id="patch_5">
    <path d="M 42.620313 347.679395 
L 382.616979 347.679395 
" style="fill: none; stroke: #000000; stroke-width: 0.8; stroke-linejoin: miter; stroke-linecap: square"/>
   </g>
   <g id="patch_6">
    <path d="M 42.620313 64.34884 
L 382.616979 64.34884 
" style="fill: none; stroke: #000000; stroke-width: 0.8; stroke-linejoin: miter; stroke-linecap: square"/>
   </g>
   <g id="patch_7">
    <path d="M 214.406755 205.120063 
Q 269.285247 177.680817 321.163739 151.741571 
" style="fill: none; stroke: #2980b9; stroke-width: 3; stroke-linecap: round"/>
    <path d="M 316.691603 151.741571 
L 321.163739 151.741571 
L 318.480457 155.31928 
" style="fill: none; stroke: #2980b9; stroke-width: 3; stroke-linecap: round"/>
   </g>
   <g id="patch_8">
    <path d="M 214.408484 205.119198 
Q 263.618559 180.514161 309.828633 157.409124 
" style="fill: none; stroke: #e74c3c; stroke-width: 3; stroke-linecap: round"/>
    <path d="M 305.356497 157.409124 
L 309.828633 157.409124 
L 307.145352 160.986833 
" style="fill: none; stroke: #e74c3c; stroke-width: 3; stroke-linecap: round"/>
   </g>
   <g id="text_15">
    <!-- w -->
    <g style="fill: #2980b9" transform="translate(334.450785 138.014784) scale(0.15 -0.15)">
     <defs>
      <path id="DejaVuSans-Bold-77" d="M 225 3500 
L 1313 3500 
L 1900 1088 
L 2491 3500 
L 3425 3500 
L 4013 1113 
L 4603 3500 
L 5691 3500 
L 4769 0 
L 3547 0 
L 2956 2406 
L 2369 0 
L 1147 0 
L 225 3500 
z
" transform="scale(0.015625)"/>
     </defs>
     <use xlink:href="#DejaVuSans-Bold-77"/>
    </g>
   </g>
   <g id="text_16">
    <!-- x -->
    <g style="fill: #e74c3c" transform="translate(323.117563 143.681395) scale(0.15 -0.15)">
     <defs>
      <path id="DejaVuSans-Bold-78" d="M 1422 1791 
L 159 3500 
L 1344 3500 
L 2059 2463 
L 2784 3500 
L 3969 3500 
L 2706 1797 
L 4031 0 
L 2847 0 
L 2059 1106 
L 1281 0 
L 97 0 
L 1422 1791 
z
" transform="scale(0.015625)"/>
     </defs>
     <use xlink:href="#DejaVuSans-Bold-78"/>
    </g>
   </g>
   <g id="text_17">
    <!-- 0° -->
    <g style="fill: #9b59b6" transform="translate(255.113995 184.490349) scale(0.12 -0.12)">
     <defs>
      <path id="DejaVuSans-Bold-30" d="M 2944 2338 
Q 2944 3213 2780 3570 
Q 2616 3928 2228 3928 
Q 1841 3928 1675 3570 
Q 1509 3213 1509 2338 
Q 1509 1453 1675 1090 
Q 1841 728 2228 728 
Q 2613 728 2778 1090 
Q 2944 1453 2944 2338 
z
M 4147 2328 
Q 4147 1169 3647 539 
Q 3147 -91 2228 -91 
Q 1306 -91 806 539 
Q 306 1169 306 2328 
Q 306 3491 806 4120 
Q 1306 4750 2228 4750 
Q 3147 4750 3647 4120 
Q 4147 3491 4147 2328 
z
" transform="scale(0.015625)"/>
      <path id="DejaVuSans-Bold-b0" d="M 1600 4288 
Q 1375 4288 1219 4131 
Q 1063 3975 1063 3750 
Q 1063 3525 1217 3372 
Q 1372 3219 1600 3219 
Q 1825 3219 1981 3373 
Q 2138 3528 2138 3750 
Q 2138 3975 1980 4131 
Q 1822 4288 1600 4288 
z
M 1600 4794 
Q 1806 4794 1997 4714 
Q 2188 4634 2338 4488 
Q 2484 4338 2561 4150 
Q 2638 3963 2638 3750 
Q 2638 3541 2561 3352 
Q 2484 3163 2344 3022 
Q 2194 2872 2000 2792 
Q 1806 2713 1594 2713 
Q 1153 2713 854 3011 
Q 556 3309 556 3750 
Q 556 4191 857 4492 
Q 1159 4794 1600 4794 
z
" transform="scale(0.015625)"/>
     </defs>
     <use xlink:href="#DejaVuSans-Bold-30"/>
     <use xlink:href="#DejaVuSans-Bold-b0" transform="translate(69.580078 0)"/>
    </g>
   </g>
   <g id="text_18">
    <g id="patch_9">
     <path d="M 170.964271 315.12468 
L 254.273021 315.12468 
Q 258.473021 315.12468 258.473021 310.92468 
L 258.473021 297.375305 
Q 258.473021 293.175305 254.273021 293.175305 
L 170.964271 293.175305 
Q 166.764271 293.175305 166.764271 297.375305 
L 166.764271 310.92468 
Q 166.764271 315.12468 170.964271 315.12468 
z
" style="fill: #ffffff; opacity: 0.9; stroke: #333333; stroke-linejoin: miter"/>
    </g>
    <!-- w · x = 4.5 -->
    <g style="fill: #333333" transform="translate(170.964271 308.013118) scale(0.14 -0.14)">
     <defs>
      <path id="DejaVuSans-Bold-20" transform="scale(0.015625)"/>
      <path id="DejaVuSans-Bold-b7" d="M 653 2828 
L 1778 2828 
L 1778 1619 
L 653 1619 
L 653 2828 
z
" transform="scale(0.015625)"/>
      <path id="DejaVuSans-Bold-3d" d="M 678 3084 
L 4684 3084 
L 4684 2350 
L 678 2350 
L 678 3084 
z
M 678 1663 
L 4684 1663 
L 4684 922 
L 678 922 
L 678 1663 
z
" transform="scale(0.015625)"/>
      <path id="DejaVuSans-Bold-34" d="M 2356 3675 
L 1038 1722 
L 2356 1722 
L 2356 3675 
z
M 2156 4666 
L 3494 4666 
L 3494 1722 
L 4159 1722 
L 4159 850 
L 3494 850 
L 3494 0 
L 2356 0 
L 2356 850 
L 288 850 
L 288 1881 
L 2156 4666 
z
" transform="scale(0.015625)"/>
      <path id="DejaVuSans-Bold-2e" d="M 653 1209 
L 1778 1209 
L 1778 0 
L 653 0 
L 653 1209 
z
" transform="scale(0.015625)"/>
      <path id="DejaVuSans-Bold-35" d="M 678 4666 
L 3669 4666 
L 3669 3781 
L 1638 3781 
L 1638 3059 
Q 1775 3097 1914 3117 
Q 2053 3138 2203 3138 
Q 3056 3138 3531 2711 
Q 4006 2284 4006 1522 
Q 4006 766 3489 337 
Q 2972 -91 2053 -91 
Q 1656 -91 1267 -14 
Q 878 63 494 219 
L 494 1166 
Q 875 947 1217 837 
Q 1559 728 1863 728 
Q 2300 728 2551 942 
Q 2803 1156 2803 1522 
Q 2803 1891 2551 2103 
Q 2300 2316 1863 2316 
Q 1603 2316 1309 2248 
Q 1016 2181 678 2041 
L 678 4666 
z
" transform="scale(0.015625)"/>
     </defs>
     <use xlink:href="#DejaVuSans-Bold-77"/>
     <use xlink:href="#DejaVuSans-Bold-20" transform="translate(92.382812 0)"/>
     <use xlink:href="#DejaVuSans-Bold-b7" transform="translate(127.197266 0)"/>
     <use xlink:href="#DejaVuSans-Bold-20" transform="translate(165.185547 0)"/>
     <use xlink:href="#DejaVuSans-Bold-78" transform="translate(200 0)"/>
     <use xlink:href="#DejaVuSans-Bold-20" transform="translate(264.501953 0)"/>
     <use xlink:href="#DejaVuSans-Bold-3d" transform="translate(299.316406 0)"/>
     <use xlink:href="#DejaVuSans-Bold-20" transform="translate(383.105469 0)"/>
     <use xlink:href="#DejaVuSans-Bold-34" transform="translate(417.919922 0)"/>
     <use xlink:href="#DejaVuSans-Bold-2e" transform="translate(487.5 0)"/>
     <use xlink:href="#DejaVuSans-Bold-35" transform="translate(525.488281 0)"/>
    </g>
   </g>
   <g id="text_19">
    <!-- Vectors align → strong response -->
    <g style="fill: #555555" transform="translate(132.412396 336.346173) scale(0.1 -0.1)">
     <defs>
      <path id="DejaVuSans-Oblique-56" d="M 1319 0 
L 500 4666 
L 1119 4666 
L 1797 653 
L 4063 4666 
L 4750 4666 
L 2053 0 
L 1319 0 
z
" transform="scale(0.015625)"/>
      <path id="DejaVuSans-Oblique-65" d="M 3078 2063 
Q 3088 2113 3092 2166 
Q 3097 2219 3097 2272 
Q 3097 2653 2873 2875 
Q 2650 3097 2266 3097 
Q 1838 3097 1509 2826 
Q 1181 2556 1013 2059 
L 3078 2063 
z
M 3578 1613 
L 903 1613 
Q 884 1494 878 1425 
Q 872 1356 872 1306 
Q 872 872 1139 634 
Q 1406 397 1894 397 
Q 2269 397 2603 481 
Q 2938 566 3225 728 
L 3116 159 
Q 2806 34 2476 -28 
Q 2147 -91 1806 -91 
Q 1078 -91 686 257 
Q 294 606 294 1247 
Q 294 1794 489 2264 
Q 684 2734 1063 3103 
Q 1306 3334 1642 3459 
Q 1978 3584 2356 3584 
Q 2950 3584 3301 3228 
Q 3653 2872 3653 2272 
Q 3653 2128 3634 1964 
Q 3616 1800 3578 1613 
z
" transform="scale(0.015625)"/>
      <path id="DejaVuSans-Oblique-63" d="M 3431 3366 
L 3316 2797 
Q 3109 2947 2876 3022 
Q 2644 3097 2394 3097 
Q 2119 3097 1870 3000 
Q 1622 2903 1453 2725 
Q 1184 2453 1037 2087 
Q 891 1722 891 1331 
Q 891 859 1127 628 
Q 1363 397 1844 397 
Q 2081 397 2348 469 
Q 2616 541 2906 684 
L 2797 116 
Q 2547 13 2283 -39 
Q 2019 -91 1741 -91 
Q 1044 -91 669 257 
Q 294 606 294 1253 
Q 294 1797 489 2255 
Q 684 2713 1069 3078 
Q 1331 3328 1684 3456 
Q 2038 3584 2456 3584 
Q 2700 3584 2940 3529 
Q 3181 3475 3431 3366 
z
" transform="scale(0.015625)"/>
      <path id="DejaVuSans-Oblique-74" d="M 2706 3500 
L 2619 3053 
L 1472 3053 
L 1100 1153 
Q 1081 1047 1072 975 
Q 1063 903 1063 863 
Q 1063 663 1183 572 
Q 1303 481 1569 481 
L 2150 481 
L 2053 0 
L 1503 0 
Q 991 0 739 200 
Q 488 400 488 806 
Q 488 878 497 964 
Q 506 1050 525 1153 
L 897 3053 
L 409 3053 
L 500 3500 
L 978 3500 
L 1172 4494 
L 1747 4494 
L 1556 3500 
L 2706 3500 
z
" transform="scale(0.015625)"/>
      <path id="DejaVuSans-Oblique-6f" d="M 1625 -91 
Q 1009 -91 651 289 
Q 294 669 294 1325 
Q 294 1706 417 2101 
Q 541 2497 738 2766 
Q 1047 3184 1428 3384 
Q 1809 3584 2291 3584 
Q 2888 3584 3255 3212 
Q 3622 2841 3622 2241 
Q 3622 1825 3500 1412 
Q 3378 1000 3181 728 
Q 2875 309 2494 109 
Q 2113 -91 1625 -91 
z
M 891 1344 
Q 891 869 1089 633 
Q 1288 397 1691 397 
Q 2269 397 2648 901 
Q 3028 1406 3028 2181 
Q 3028 2634 2825 2865 
Q 2622 3097 2228 3097 
Q 1903 3097 1650 2945 
Q 1397 2794 1197 2484 
Q 1050 2253 970 1956 
Q 891 1659 891 1344 
z
" transform="scale(0.015625)"/>
      <path id="DejaVuSans-Oblique-72" d="M 2853 2969 
Q 2766 3016 2653 3041 
Q 2541 3066 2413 3066 
Q 1953 3066 1609 2717 
Q 1266 2369 1153 1784 
L 800 0 
L 225 0 
L 909 3500 
L 1484 3500 
L 1375 2956 
Q 1603 3259 1920 3421 
Q 2238 3584 2597 3584 
Q 2691 3584 2781 3573 
Q 2872 3563 2963 3538 
L 2853 2969 
z
" transform="scale(0.015625)"/>
      <path id="DejaVuSans-Oblique-73" d="M 3200 3397 
L 3091 2853 
Q 2863 2978 2609 3040 
Q 2356 3103 2088 3103 
Q 1634 3103 1373 2948 
Q 1113 2794 1113 2528 
Q 1113 2219 1719 2053 
Q 1766 2041 1788 2034 
L 1972 1978 
Q 2547 1819 2739 1644 
Q 2931 1469 2931 1166 
Q 2931 609 2489 259 
Q 2047 -91 1331 -91 
Q 1053 -91 747 -37 
Q 441 16 72 128 
L 184 722 
Q 500 559 806 475 
Q 1113 391 1394 391 
Q 1816 391 2080 572 
Q 2344 753 2344 1031 
Q 2344 1331 1650 1516 
L 1591 1531 
L 1394 1581 
Q 956 1697 753 1886 
Q 550 2075 550 2369 
Q 550 2928 970 3256 
Q 1391 3584 2113 3584 
Q 2397 3584 2667 3537 
Q 2938 3491 3200 3397 
z
" transform="scale(0.015625)"/>
      <path id="DejaVuSans-Oblique-20" transform="scale(0.015625)"/>
      <path id="DejaVuSans-Oblique-61" d="M 3438 1997 
L 3047 0 
L 2472 0 
L 2578 531 
Q 2325 219 2001 64 
Q 1678 -91 1281 -91 
Q 834 -91 548 182 
Q 263 456 263 884 
Q 263 1497 752 1853 
Q 1241 2209 2100 2209 
L 2900 2209 
L 2931 2363 
Q 2938 2388 2941 2417 
Q 2944 2447 2944 2509 
Q 2944 2788 2717 2942 
Q 2491 3097 2081 3097 
Q 1800 3097 1504 3025 
Q 1209 2953 897 2809 
L 997 3341 
Q 1322 3463 1633 3523 
Q 1944 3584 2234 3584 
Q 2853 3584 3176 3315 
Q 3500 3047 3500 2534 
Q 3500 2431 3484 2292 
Q 3469 2153 3438 1997 
z
M 2816 1759 
L 2241 1759 
Q 1534 1759 1195 1570 
Q 856 1381 856 984 
Q 856 709 1029 553 
Q 1203 397 1509 397 
Q 1978 397 2328 733 
Q 2678 1069 2791 1631 
L 2816 1759 
z
" transform="scale(0.015625)"/>
      <path id="DejaVuSans-Oblique-6c" d="M 1172 4863 
L 1747 4863 
L 800 0 
L 225 0 
L 1172 4863 
z
" transform="scale(0.015625)"/>
      <path id="DejaVuSans-Oblique-69" d="M 1172 4863 
L 1747 4863 
L 1606 4134 
L 1031 4134 
L 1172 4863 
z
M 909 3500 
L 1484 3500 
L 800 0 
L 225 0 
L 909 3500 
z
" transform="scale(0.015625)"/>
      <path id="DejaVuSans-Oblique-67" d="M 3816 3500 
L 3219 434 
Q 3047 -456 2561 -893 
Q 2075 -1331 1253 -1331 
Q 950 -1331 690 -1286 
Q 431 -1241 206 -1147 
L 313 -588 
Q 525 -725 762 -790 
Q 1000 -856 1269 -856 
Q 1816 -856 2167 -557 
Q 2519 -259 2631 300 
L 2681 563 
Q 2441 288 2122 144 
Q 1803 0 1434 0 
Q 903 0 598 351 
Q 294 703 294 1319 
Q 294 1803 478 2267 
Q 663 2731 997 3091 
Q 1219 3328 1514 3456 
Q 1809 3584 2131 3584 
Q 2484 3584 2746 3420 
Q 3009 3256 3138 2956 
L 3238 3500 
L 3816 3500 
z
M 2950 2216 
Q 2950 2641 2750 2872 
Q 2550 3103 2181 3103 
Q 1953 3103 1747 3012 
Q 1541 2922 1394 2759 
Q 1156 2491 1023 2127 
Q 891 1763 891 1375 
Q 891 944 1092 712 
Q 1294 481 1672 481 
Q 2219 481 2584 976 
Q 2950 1472 2950 2216 
z
" transform="scale(0.015625)"/>
      <path id="DejaVuSans-Oblique-6e" d="M 3566 2113 
L 3156 0 
L 2578 0 
L 2988 2091 
Q 3016 2238 3031 2350 
Q 3047 2463 3047 2528 
Q 3047 2791 2881 2937 
Q 2716 3084 2419 3084 
Q 1956 3084 1622 2776 
Q 1288 2469 1184 1941 
L 800 0 
L 225 0 
L 903 3500 
L 1478 3500 
L 1363 2950 
Q 1603 3253 1940 3418 
Q 2278 3584 2650 3584 
Q 3113 3584 3367 3334 
Q 3622 3084 3622 2631 
Q 3622 2519 3608 2391 
Q 3594 2263 3566 2113 
z
" transform="scale(0.015625)"/>
      <path id="DejaVuSans-Oblique-2192" d="M 5050 2147 
L 5050 1866 
L 3822 638 
L 3447 1013 
L 4175 1741 
L 366 1741 
L 366 2272 
L 4175 2272 
L 3447 3000 
L 3822 3375 
L 5050 2147 
z
" transform="scale(0.015625)"/>
      <path id="DejaVuSans-Oblique-70" d="M 3175 2156 
Q 3175 2616 2975 2859 
Q 2775 3103 2400 3103 
Q 2144 3103 1911 2972 
Q 1678 2841 1497 2591 
Q 1319 2344 1212 1994 
Q 1106 1644 1106 1300 
Q 1106 863 1306 627 
Q 1506 391 1875 391 
Q 2147 391 2380 519 
Q 2613 647 2778 891 
Q 2956 1147 3065 1494 
Q 3175 1841 3175 2156 
z
M 1394 2969 
Q 1625 3272 1939 3428 
Q 2253 3584 2638 3584 
Q 3175 3584 3472 3232 
Q 3769 2881 3769 2247 
Q 3769 1728 3584 1258 
Q 3400 788 3053 416 
Q 2822 169 2531 39 
Q 2241 -91 1919 -91 
Q 1547 -91 1294 64 
Q 1041 219 916 525 
L 556 -1331 
L -19 -1331 
L 922 3500 
L 1497 3500 
L 1394 2969 
z
" transform="scale(0.015625)"/>
     </defs>
     <use xlink:href="#DejaVuSans-Oblique-56"/>
     <use xlink:href="#DejaVuSans-Oblique-65" transform="translate(62.533203 0)"/>
     <use xlink:href="#DejaVuSans-Oblique-63" transform="translate(124.056641 0)"/>
     <use xlink:href="#DejaVuSans-Oblique-74" transform="translate(179.037109 0)"/>
     <use xlink:href="#DejaVuSans-Oblique-6f" transform="translate(218.246094 0)"/>
     <use xlink:href="#DejaVuSans-Oblique-72" transform="translate(279.427734 0)"/>
     <use xlink:href="#DejaVuSans-Oblique-73" transform="translate(320.541016 0)"/>
     <use xlink:href="#DejaVuSans-Oblique-20" transform="translate(372.640625 0)"/>
     <use xlink:href="#DejaVuSans-Oblique-61" transform="translate(404.427734 0)"/>
     <use xlink:href="#DejaVuSans-Oblique-6c" transform="translate(465.707031 0)"/>
     <use xlink:href="#DejaVuSans-Oblique-69" transform="translate(493.490234 0)"/>
     <use xlink:href="#DejaVuSans-Oblique-67" transform="translate(521.273438 0)"/>
     <use xlink:href="#DejaVuSans-Oblique-6e" transform="translate(584.75 0)"/>
     <use xlink:href="#DejaVuSans-Oblique-20" transform="translate(648.128906 0)"/>
     <use xlink:href="#DejaVuSans-Oblique-2192" transform="translate(679.916016 0)"/>
     <use xlink:href="#DejaVuSans-Oblique-20" transform="translate(763.705078 0)"/>
     <use xlink:href="#DejaVuSans-Oblique-73" transform="translate(795.492188 0)"/>
     <use xlink:href="#DejaVuSans-Oblique-74" transform="translate(847.591797 0)"/>
     <use xlink:href="#DejaVuSans-Oblique-72" transform="translate(886.800781 0)"/>
     <use xlink:href="#DejaVuSans-Oblique-6f" transform="translate(927.914062 0)"/>
     <use xlink:href="#DejaVuSans-Oblique-6e" transform="translate(989.095703 0)"/>
     <use xlink:href="#DejaVuSans-Oblique-67" transform="translate(1052.474609 0)"/>
     <use xlink:href="#DejaVuSans-Oblique-20" transform="translate(1115.951172 0)"/>
     <use xlink:href="#DejaVuSans-Oblique-72" transform="translate(1147.738281 0)"/>
     <use xlink:href="#DejaVuSans-Oblique-65" transform="translate(1188.851562 0)"/>
     <use xlink:href="#DejaVuSans-Oblique-73" transform="translate(1250.375 0)"/>
     <use xlink:href="#DejaVuSans-Oblique-70" transform="translate(1302.474609 0)"/>
     <use xlink:href="#DejaVuSans-Oblique-6f" transform="translate(1365.951172 0)"/>
     <use xlink:href="#DejaVuSans-Oblique-6e" transform="translate(1427.132812 0)"/>
     <use xlink:href="#DejaVuSans-Oblique-73" transform="translate(1490.511719 0)"/>
     <use xlink:href="#DejaVuSans-Oblique-65" transform="translate(1542.611328 0)"/>
    </g>
   </g>
   <g id="text_20">
    <!-- Same Direction -->
    <g transform="translate(152.276458 58.34884) scale(0.14 -0.14)">
     <defs>
      <path id="DejaVuSans-Bold-53" d="M 3834 4519 
L 3834 3531 
Q 3450 3703 3084 3790 
Q 2719 3878 2394 3878 
Q 1963 3878 1756 3759 
Q 1550 3641 1550 3391 
Q 1550 3203 1689 3098 
Q 1828 2994 2194 2919 
L 2706 2816 
Q 3484 2659 3812 2340 
Q 4141 2022 4141 1434 
Q 4141 663 3683 286 
Q 3225 -91 2284 -91 
Q 1841 -91 1394 -6 
Q 947 78 500 244 
L 500 1259 
Q 947 1022 1364 901 
Q 1781 781 2169 781 
Q 2563 781 2772 912 
Q 2981 1044 2981 1288 
Q 2981 1506 2839 1625 
Q 2697 1744 2272 1838 
L 1806 1941 
Q 1106 2091 782 2419 
Q 459 2747 459 3303 
Q 459 4000 909 4375 
Q 1359 4750 2203 4750 
Q 2588 4750 2994 4692 
Q 3400 4634 3834 4519 
z
" transform="scale(0.015625)"/>
      <path id="DejaVuSans-Bold-61" d="M 2106 1575 
Q 1756 1575 1579 1456 
Q 1403 1338 1403 1106 
Q 1403 894 1545 773 
Q 1688 653 1941 653 
Q 2256 653 2472 879 
Q 2688 1106 2688 1447 
L 2688 1575 
L 2106 1575 
z
M 3816 1997 
L 3816 0 
L 2688 0 
L 2688 519 
Q 2463 200 2181 54 
Q 1900 -91 1497 -91 
Q 953 -91 614 226 
Q 275 544 275 1050 
Q 275 1666 698 1953 
Q 1122 2241 2028 2241 
L 2688 2241 
L 2688 2328 
Q 2688 2594 2478 2717 
Q 2269 2841 1825 2841 
Q 1466 2841 1156 2769 
Q 847 2697 581 2553 
L 581 3406 
Q 941 3494 1303 3539 
Q 1666 3584 2028 3584 
Q 2975 3584 3395 3211 
Q 3816 2838 3816 1997 
z
" transform="scale(0.015625)"/>
      <path id="DejaVuSans-Bold-6d" d="M 3781 2919 
Q 3994 3244 4286 3414 
Q 4578 3584 4928 3584 
Q 5531 3584 5847 3212 
Q 6163 2841 6163 2131 
L 6163 0 
L 5038 0 
L 5038 1825 
Q 5041 1866 5042 1909 
Q 5044 1953 5044 2034 
Q 5044 2406 4934 2573 
Q 4825 2741 4581 2741 
Q 4263 2741 4089 2478 
Q 3916 2216 3909 1719 
L 3909 0 
L 2784 0 
L 2784 1825 
Q 2784 2406 2684 2573 
Q 2584 2741 2328 2741 
Q 2006 2741 1831 2477 
Q 1656 2213 1656 1722 
L 1656 0 
L 531 0 
L 531 3500 
L 1656 3500 
L 1656 2988 
Q 1863 3284 2130 3434 
Q 2397 3584 2719 3584 
Q 3081 3584 3359 3409 
Q 3638 3234 3781 2919 
z
" transform="scale(0.015625)"/>
      <path id="DejaVuSans-Bold-65" d="M 4031 1759 
L 4031 1441 
L 1416 1441 
Q 1456 1047 1700 850 
Q 1944 653 2381 653 
Q 2734 653 3104 758 
Q 3475 863 3866 1075 
L 3866 213 
Q 3469 63 3072 -14 
Q 2675 -91 2278 -91 
Q 1328 -91 801 392 
Q 275 875 275 1747 
Q 275 2603 792 3093 
Q 1309 3584 2216 3584 
Q 3041 3584 3536 3087 
Q 4031 2591 4031 1759 
z
M 2881 2131 
Q 2881 2450 2695 2645 
Q 2509 2841 2209 2841 
Q 1884 2841 1681 2658 
Q 1478 2475 1428 2131 
L 2881 2131 
z
" transform="scale(0.015625)"/>
      <path id="DejaVuSans-Bold-44" d="M 1791 3756 
L 1791 909 
L 2222 909 
Q 2959 909 3348 1275 
Q 3738 1641 3738 2338 
Q 3738 3031 3350 3393 
Q 2963 3756 2222 3756 
L 1791 3756 
z
M 588 4666 
L 1856 4666 
Q 2919 4666 3439 4514 
Q 3959 4363 4331 4000 
Q 4659 3684 4818 3271 
Q 4978 2859 4978 2338 
Q 4978 1809 4818 1395 
Q 4659 981 4331 666 
Q 3956 303 3431 151 
Q 2906 0 1856 0 
L 588 0 
L 588 4666 
z
" transform="scale(0.015625)"/>
      <path id="DejaVuSans-Bold-69" d="M 538 3500 
L 1656 3500 
L 1656 0 
L 538 0 
L 538 3500 
z
M 538 4863 
L 1656 4863 
L 1656 3950 
L 538 3950 
L 538 4863 
z
" transform="scale(0.015625)"/>
      <path id="DejaVuSans-Bold-72" d="M 3138 2547 
Q 2991 2616 2845 2648 
Q 2700 2681 2553 2681 
Q 2122 2681 1889 2404 
Q 1656 2128 1656 1613 
L 1656 0 
L 538 0 
L 538 3500 
L 1656 3500 
L 1656 2925 
Q 1872 3269 2151 3426 
Q 2431 3584 2822 3584 
Q 2878 3584 2943 3579 
Q 3009 3575 3134 3559 
L 3138 2547 
z
" transform="scale(0.015625)"/>
      <path id="DejaVuSans-Bold-63" d="M 3366 3391 
L 3366 2478 
Q 3138 2634 2908 2709 
Q 2678 2784 2431 2784 
Q 1963 2784 1702 2511 
Q 1441 2238 1441 1747 
Q 1441 1256 1702 982 
Q 1963 709 2431 709 
Q 2694 709 2930 787 
Q 3166 866 3366 1019 
L 3366 103 
Q 3103 6 2833 -42 
Q 2563 -91 2291 -91 
Q 1344 -91 809 395 
Q 275 881 275 1747 
Q 275 2613 809 3098 
Q 1344 3584 2291 3584 
Q 2566 3584 2833 3536 
Q 3100 3488 3366 3391 
z
" transform="scale(0.015625)"/>
      <path id="DejaVuSans-Bold-74" d="M 1759 4494 
L 1759 3500 
L 2913 3500 
L 2913 2700 
L 1759 2700 
L 1759 1216 
Q 1759 972 1856 886 
Q 1953 800 2241 800 
L 2816 800 
L 2816 0 
L 1856 0 
Q 1194 0 917 276 
Q 641 553 641 1216 
L 641 2700 
L 84 2700 
L 84 3500 
L 641 3500 
L 641 4494 
L 1759 4494 
z
" transform="scale(0.015625)"/>
      <path id="DejaVuSans-Bold-6f" d="M 2203 2784 
Q 1831 2784 1636 2517 
Q 1441 2250 1441 1747 
Q 1441 1244 1636 976 
Q 1831 709 2203 709 
Q 2569 709 2762 976 
Q 2956 1244 2956 1747 
Q 2956 2250 2762 2517 
Q 2569 2784 2203 2784 
z
M 2203 3584 
Q 3106 3584 3614 3096 
Q 4122 2609 4122 1747 
Q 4122 884 3614 396 
Q 3106 -91 2203 -91 
Q 1297 -91 786 396 
Q 275 884 275 1747 
Q 275 2609 786 3096 
Q 1297 3584 2203 3584 
z
" transform="scale(0.015625)"/>
      <path id="DejaVuSans-Bold-6e" d="M 4056 2131 
L 4056 0 
L 2931 0 
L 2931 347 
L 2931 1631 
Q 2931 2084 2911 2256 
Q 2891 2428 2841 2509 
Q 2775 2619 2662 2680 
Q 2550 2741 2406 2741 
Q 2056 2741 1856 2470 
Q 1656 2200 1656 1722 
L 1656 0 
L 538 0 
L 538 3500 
L 1656 3500 
L 1656 2988 
Q 1909 3294 2193 3439 
Q 2478 3584 2822 3584 
Q 3428 3584 3742 3212 
Q 4056 2841 4056 2131 
z
" transform="scale(0.015625)"/>
     </defs>
     <use xlink:href="#DejaVuSans-Bold-53"/>
     <use xlink:href="#DejaVuSans-Bold-61" transform="translate(72.021484 0)"/>
     <use xlink:href="#DejaVuSans-Bold-6d" transform="translate(139.501953 0)"/>
     <use xlink:href="#DejaVuSans-Bold-65" transform="translate(243.701172 0)"/>
     <use xlink:href="#DejaVuSans-Bold-20" transform="translate(311.523438 0)"/>
     <use xlink:href="#DejaVuSans-Bold-44" transform="translate(346.337891 0)"/>
     <use xlink:href="#DejaVuSans-Bold-69" transform="translate(429.345703 0)"/>
     <use xlink:href="#DejaVuSans-Bold-72" transform="translate(463.623047 0)"/>
     <use xlink:href="#DejaVuSans-Bold-65" transform="translate(512.939453 0)"/>
     <use xlink:href="#DejaVuSans-Bold-63" transform="translate(580.761719 0)"/>
     <use xlink:href="#DejaVuSans-Bold-74" transform="translate(640.039062 0)"/>
     <use xlink:href="#DejaVuSans-Bold-69" transform="translate(687.841797 0)"/>
     <use xlink:href="#DejaVuSans-Bold-6f" transform="translate(722.119141 0)"/>
     <use xlink:href="#DejaVuSans-Bold-6e" transform="translate(790.820312 0)"/>
    </g>
   </g>
  </g>
  <g id="axes_2">
   <g id="patch_10">
    <path d="M 418.326979 347.679395 
L 758.323646 347.679395 
L 758.323646 64.34884 
L 418.326979 64.34884 
z
" style="fill: #fef9e7"/>
   </g>
   <g id="matplotlib.axis_3">
    <g id="xtick_8">
     <g id="line2d_16">
      <g>
       <use xlink:href="#m167a0738ea" x="418.326979" y="347.679395" style="stroke: #000000; stroke-width: 0.8"/>
      </g>
     </g>
     <g id="text_21">
      <!-- −3 -->
      <g transform="translate(410.955885 362.277833) scale(0.1 -0.1)">
       <use xlink:href="#DejaVuSans-2212"/>
       <use xlink:href="#DejaVuSans-33" transform="translate(83.789062 0)"/>
      </g>
     </g>
    </g>
    <g id="xtick_9">
     <g id="line2d_17">
      <g>
       <use xlink:href="#m167a0738ea" x="474.99309" y="347.679395" style="stroke: #000000; stroke-width: 0.8"/>
      </g>
     </g>
     <g id="text_22">
      <!-- −2 -->
      <g transform="translate(467.621997 362.277833) scale(0.1 -0.1)">
       <use xlink:href="#DejaVuSans-2212"/>
       <use xlink:href="#DejaVuSans-32" transform="translate(83.789062 0)"/>
      </g>
     </g>
    </g>
    <g id="xtick_10">
     <g id="line2d_18">
      <g>
       <use xlink:href="#m167a0738ea" x="531.659201" y="347.679395" style="stroke: #000000; stroke-width: 0.8"/>
      </g>
     </g>
     <g id="text_23">
      <!-- −1 -->
      <g transform="translate(524.288108 362.277833) scale(0.1 -0.1)">
       <use xlink:href="#DejaVuSans-2212"/>
       <use xlink:href="#DejaVuSans-31" transform="translate(83.789062 0)"/>
      </g>
     </g>
    </g>
    <g id="xtick_11">
     <g id="line2d_19">
      <g>
       <use xlink:href="#m167a0738ea" x="588.325312" y="347.679395" style="stroke: #000000; stroke-width: 0.8"/>
      </g>
     </g>
     <g id="text_24">
      <!-- 0 -->
      <g transform="translate(585.144063 362.277833) scale(0.1 -0.1)">
       <use xlink:href="#DejaVuSans-30"/>
      </g>
     </g>
    </g>
    <g id="xtick_12">
     <g id="line2d_20">
      <g>
       <use xlink:href="#m167a0738ea" x="644.991424" y="347.679395" style="stroke: #000000; stroke-width: 0.8"/>
      </g>
     </g>
     <g id="text_25">
      <!-- 1 -->
      <g transform="translate(641.810174 362.277833) scale(0.1 -0.1)">
       <use xlink:href="#DejaVuSans-31"/>
      </g>
     </g>
    </g>
    <g id="xtick_13">
     <g id="line2d_21">
      <g>
       <use xlink:href="#m167a0738ea" x="701.657535" y="347.679395" style="stroke: #000000; stroke-width: 0.8"/>
      </g>
     </g>
     <g id="text_26">
      <!-- 2 -->
      <g transform="translate(698.476285 362.277833) scale(0.1 -0.1)">
       <use xlink:href="#DejaVuSans-32"/>
      </g>
     </g>
    </g>
    <g id="xtick_14">
     <g id="line2d_22">
      <g>
       <use xlink:href="#m167a0738ea" x="758.323646" y="347.679395" style="stroke: #000000; stroke-width: 0.8"/>
      </g>
     </g>
     <g id="text_27">
      <!-- 3 -->
      <g transform="translate(755.142396 362.277833) scale(0.1 -0.1)">
       <use xlink:href="#DejaVuSans-33"/>
      </g>
     </g>
    </g>
    <g id="text_28">
     <!-- dim 1 -->
     <g transform="translate(574.121406 375.955958) scale(0.1 -0.1)">
      <use xlink:href="#DejaVuSans-64"/>
      <use xlink:href="#DejaVuSans-69" transform="translate(63.476562 0)"/>
      <use xlink:href="#DejaVuSans-6d" transform="translate(91.259766 0)"/>
      <use xlink:href="#DejaVuSans-20" transform="translate(188.671875 0)"/>
      <use xlink:href="#DejaVuSans-31" transform="translate(220.458984 0)"/>
     </g>
    </g>
   </g>
   <g id="matplotlib.axis_4">
    <g id="ytick_6">
     <g id="line2d_23">
      <g>
       <use xlink:href="#mba3591077e" x="418.326979" y="319.34634" style="stroke: #000000; stroke-width: 0.8"/>
      </g>
     </g>
     <g id="text_29">
      <!-- −2 -->
      <g transform="translate(396.584792 323.145559) scale(0.1 -0.1)">
       <use xlink:href="#DejaVuSans-2212"/>
       <use xlink:href="#DejaVuSans-32" transform="translate(83.789062 0)"/>
      </g>
     </g>
    </g>
    <g id="ytick_7">
     <g id="line2d_24">
      <g>
       <use xlink:href="#mba3591077e" x="418.326979" y="262.680229" style="stroke: #000000; stroke-width: 0.8"/>
      </g>
     </g>
     <g id="text_30">
      <!-- −1 -->
      <g transform="translate(396.584792 266.479448) scale(0.1 -0.1)">
       <use xlink:href="#DejaVuSans-2212"/>
       <use xlink:href="#DejaVuSans-31" transform="translate(83.789062 0)"/>
      </g>
     </g>
    </g>
    <g id="ytick_8">
     <g id="line2d_25">
      <g>
       <use xlink:href="#mba3591077e" x="418.326979" y="206.014118" style="stroke: #000000; stroke-width: 0.8"/>
      </g>
     </g>
     <g id="text_31">
      <!-- 0 -->
      <g transform="translate(404.964479 209.813336) scale(0.1 -0.1)">
       <use xlink:href="#DejaVuSans-30"/>
      </g>
     </g>
    </g>
    <g id="ytick_9">
     <g id="line2d_26">
      <g>
       <use xlink:href="#mba3591077e" x="418.326979" y="149.348007" style="stroke: #000000; stroke-width: 0.8"/>
      </g>
     </g>
     <g id="text_32">
      <!-- 1 -->
      <g transform="translate(404.964479 153.147225) scale(0.1 -0.1)">
       <use xlink:href="#DejaVuSans-31"/>
      </g>
     </g>
    </g>
    <g id="ytick_10">
     <g id="line2d_27">
      <g>
       <use xlink:href="#mba3591077e" x="418.326979" y="92.681895" style="stroke: #000000; stroke-width: 0.8"/>
      </g>
     </g>
     <g id="text_33">
      <!-- 2 -->
      <g transform="translate(404.964479 96.481114) scale(0.1 -0.1)">
       <use xlink:href="#DejaVuSans-32"/>
      </g>
     </g>
    </g>
   </g>
   <g id="line2d_28">
    <path d="M 418.326979 206.014118 
L 758.323646 206.014118 
" clip-path="url(#p9c1b720ecf)" style="fill: none; stroke: #cccccc; stroke-width: 0.8; stroke-linecap: square"/>
   </g>
   <g id="line2d_29">
    <path d="M 588.325312 347.679395 
L 588.325312 64.34884 
" clip-path="url(#p9c1b720ecf)" style="fill: none; stroke: #cccccc; stroke-width: 0.8; stroke-linecap: square"/>
   </g>
   <g id="line2d_30">
    <path d="M 623.80391 188.274819 
L 622.791491 186.380063 
L 621.677977 184.542896 
L 620.466634 182.768709 
L 619.161015 181.062704 
L 617.76495 179.429886 
L 616.282533 177.875045 
L 614.718112 176.40274 
L 613.076277 175.01729 
L 611.361843 173.722759 
L 609.579839 172.522945 
L 607.735492 171.421365 
L 605.834212 170.421253 
L 603.881575 169.52554 
L 601.883308 168.736855 
L 599.845274 168.05751 
L 597.77345 167.489498 
L 595.673912 167.034486 
L 593.55282 166.693808 
L 591.416395 166.468463 
L 589.270903 166.359112 
L 587.122637 166.366077 
L 584.9779 166.489335 
L 582.84298 166.728527 
L 580.724142 167.08295 
L 578.627598 167.551565 
L 576.5595 168.132998 
L 574.525913 168.825542 
L 572.532803 169.627166 
L 570.586014 170.53552 
" clip-path="url(#p9c1b720ecf)" style="fill: none; stroke: #9b59b6; stroke-width: 2; stroke-linecap: square"/>
   </g>
   <g id="patch_11">
    <path d="M 418.326979 347.679395 
L 418.326979 64.34884 
" style="fill: none; stroke: #000000; stroke-width: 0.8; stroke-linejoin: miter; stroke-linecap: square"/>
   </g>
   <g id="patch_12">
    <path d="M 758.323646 347.679395 
L 758.323646 64.34884 
" style="fill: none; stroke: #000000; stroke-width: 0.8; stroke-linejoin: miter; stroke-linecap: square"/>
   </g>
   <g id="patch_13">
    <path d="M 418.326979 347.679395 
L 758.323646 347.679395 
" style="fill: none; stroke: #000000; stroke-width: 0.8; stroke-linejoin: miter; stroke-linecap: square"/>
   </g>
   <g id="patch_14">
    <path d="M 418.326979 64.34884 
L 758.323646 64.34884 
" style="fill: none; stroke: #000000; stroke-width: 0.8; stroke-linejoin: miter; stroke-linecap: square"/>
   </g>
   <g id="patch_15">
    <path d="M 590.113422 205.120063 
Q 644.991913 177.680817 696.870405 151.741571 
" style="fill: none; stroke: #2980b9; stroke-width: 3; stroke-linecap: round"/>
    <path d="M 692.398269 151.741571 
L 696.870405 151.741571 
L 694.187124 155.31928 
" style="fill: none; stroke: #2980b9; stroke-width: 3; stroke-linecap: round"/>
   </g>
   <g id="patch_16">
    <path d="M 587.43022 204.223933 
Q 565.658168 160.679829 545.386116 120.135724 
" style="fill: none; stroke: #e74c3c; stroke-width: 3; stroke-linecap: round"/>
    <path d="M 545.386116 124.60786 
L 545.386116 120.135724 
L 548.963825 122.819006 
" style="fill: none; stroke: #e74c3c; stroke-width: 3; stroke-linecap: round"/>
   </g>
   <g id="text_34">
    <!-- w -->
    <g style="fill: #2980b9" transform="translate(710.157451 138.014784) scale(0.15 -0.15)">
     <use xlink:href="#DejaVuSans-Bold-77"/>
    </g>
   </g>
   <g id="text_35">
    <!-- x -->
    <g style="fill: #e74c3c" transform="translate(551.49234 104.015118) scale(0.15 -0.15)">
     <use xlink:href="#DejaVuSans-Bold-78"/>
    </g>
   </g>
   <g id="text_36">
    <!-- 90° -->
    <g style="fill: #9b59b6" transform="translate(594.536947 156.642338) scale(0.12 -0.12)">
     <defs>
      <path id="DejaVuSans-Bold-39" d="M 641 103 
L 641 966 
Q 928 831 1190 764 
Q 1453 697 1709 697 
Q 2247 697 2547 995 
Q 2847 1294 2900 1881 
Q 2688 1725 2447 1647 
Q 2206 1569 1925 1569 
Q 1209 1569 770 1986 
Q 331 2403 331 3084 
Q 331 3838 820 4291 
Q 1309 4744 2131 4744 
Q 3044 4744 3544 4128 
Q 4044 3513 4044 2388 
Q 4044 1231 3459 570 
Q 2875 -91 1856 -91 
Q 1528 -91 1228 -42 
Q 928 6 641 103 
z
M 2125 2350 
Q 2441 2350 2600 2554 
Q 2759 2759 2759 3169 
Q 2759 3575 2600 3781 
Q 2441 3988 2125 3988 
Q 1809 3988 1650 3781 
Q 1491 3575 1491 3169 
Q 1491 2759 1650 2554 
Q 1809 2350 2125 2350 
z
" transform="scale(0.015625)"/>
     </defs>
     <use xlink:href="#DejaVuSans-Bold-39"/>
     <use xlink:href="#DejaVuSans-Bold-30" transform="translate(69.580078 0)"/>
     <use xlink:href="#DejaVuSans-Bold-b0" transform="translate(139.160156 0)"/>
    </g>
   </g>
   <g id="text_37">
    <g id="patch_17">
     <path d="M 546.670938 315.12468 
L 629.979688 315.12468 
Q 634.179688 315.12468 634.179688 310.92468 
L 634.179688 297.375305 
Q 634.179688 293.175305 629.979688 293.175305 
L 546.670938 293.175305 
Q 542.470937 293.175305 542.470937 297.375305 
L 542.470937 310.92468 
Q 542.470937 315.12468 546.670938 315.12468 
z
" style="fill: #ffffff; opacity: 0.9; stroke: #333333; stroke-linejoin: miter"/>
    </g>
    <!-- w · x = 0.0 -->
    <g style="fill: #333333" transform="translate(546.670938 308.013118) scale(0.14 -0.14)">
     <use xlink:href="#DejaVuSans-Bold-77"/>
     <use xlink:href="#DejaVuSans-Bold-20" transform="translate(92.382812 0)"/>
     <use xlink:href="#DejaVuSans-Bold-b7" transform="translate(127.197266 0)"/>
     <use xlink:href="#DejaVuSans-Bold-20" transform="translate(165.185547 0)"/>
     <use xlink:href="#DejaVuSans-Bold-78" transform="translate(200 0)"/>
     <use xlink:href="#DejaVuSans-Bold-20" transform="translate(264.501953 0)"/>
     <use xlink:href="#DejaVuSans-Bold-3d" transform="translate(299.316406 0)"/>
     <use xlink:href="#DejaVuSans-Bold-20" transform="translate(383.105469 0)"/>
     <use xlink:href="#DejaVuSans-Bold-30" transform="translate(417.919922 0)"/>
     <use xlink:href="#DejaVuSans-Bold-2e" transform="translate(487.5 0)"/>
     <use xlink:href="#DejaVuSans-Bold-30" transform="translate(525.488281 0)"/>
    </g>
   </g>
   <g id="text_38">
    <!-- Vectors orthogonal → no response -->
    <g style="fill: #555555" transform="translate(502.940156 336.346173) scale(0.1 -0.1)">
     <defs>
      <path id="DejaVuSans-Oblique-68" d="M 3566 2113 
L 3156 0 
L 2578 0 
L 2988 2091 
Q 3016 2238 3031 2350 
Q 3047 2463 3047 2528 
Q 3047 2791 2881 2937 
Q 2716 3084 2419 3084 
Q 1956 3084 1617 2771 
Q 1278 2459 1178 1941 
L 800 0 
L 225 0 
L 1172 4863 
L 1747 4863 
L 1375 2950 
Q 1594 3244 1934 3414 
Q 2275 3584 2650 3584 
Q 3113 3584 3367 3334 
Q 3622 3084 3622 2631 
Q 3622 2519 3608 2391 
Q 3594 2263 3566 2113 
z
" transform="scale(0.015625)"/>
     </defs>
     <use xlink:href="#DejaVuSans-Oblique-56"/>
     <use xlink:href="#DejaVuSans-Oblique-65" transform="translate(62.533203 0)"/>
     <use xlink:href="#DejaVuSans-Oblique-63" transform="translate(124.056641 0)"/>
     <use xlink:href="#DejaVuSans-Oblique-74" transform="translate(179.037109 0)"/>
     <use xlink:href="#DejaVuSans-Oblique-6f" transform="translate(218.246094 0)"/>
     <use xlink:href="#DejaVuSans-Oblique-72" transform="translate(279.427734 0)"/>
     <use xlink:href="#DejaVuSans-Oblique-73" transform="translate(320.541016 0)"/>
     <use xlink:href="#DejaVuSans-Oblique-20" transform="translate(372.640625 0)"/>
     <use xlink:href="#DejaVuSans-Oblique-6f" transform="translate(404.427734 0)"/>
     <use xlink:href="#DejaVuSans-Oblique-72" transform="translate(465.609375 0)"/>
     <use xlink:href="#DejaVuSans-Oblique-74" transform="translate(506.722656 0)"/>
     <use xlink:href="#DejaVuSans-Oblique-68" transform="translate(545.931641 0)"/>
     <use xlink:href="#DejaVuSans-Oblique-6f" transform="translate(609.310547 0)"/>
     <use xlink:href="#DejaVuSans-Oblique-67" transform="translate(670.492188 0)"/>
     <use xlink:href="#DejaVuSans-Oblique-6f" transform="translate(733.96875 0)"/>
     <use xlink:href="#DejaVuSans-Oblique-6e" transform="translate(795.150391 0)"/>
     <use xlink:href="#DejaVuSans-Oblique-61" transform="translate(858.529297 0)"/>
     <use xlink:href="#DejaVuSans-Oblique-6c" transform="translate(919.808594 0)"/>
     <use xlink:href="#DejaVuSans-Oblique-20" transform="translate(947.591797 0)"/>
     <use xlink:href="#DejaVuSans-Oblique-2192" transform="translate(979.378906 0)"/>
     <use xlink:href="#DejaVuSans-Oblique-20" transform="translate(1063.167969 0)"/>
     <use xlink:href="#DejaVuSans-Oblique-6e" transform="translate(1094.955078 0)"/>
     <use xlink:href="#DejaVuSans-Oblique-6f" transform="translate(1158.333984 0)"/>
     <use xlink:href="#DejaVuSans-Oblique-20" transform="translate(1219.515625 0)"/>
     <use xlink:href="#DejaVuSans-Oblique-72" transform="translate(1251.302734 0)"/>
     <use xlink:href="#DejaVuSans-Oblique-65" transform="translate(1292.416016 0)"/>
     <use xlink:href="#DejaVuSans-Oblique-73" transform="translate(1353.939453 0)"/>
     <use xlink:href="#DejaVuSans-Oblique-70" transform="translate(1406.039062 0)"/>
     <use xlink:href="#DejaVuSans-Oblique-6f" transform="translate(1469.515625 0)"/>
     <use xlink:href="#DejaVuSans-Oblique-6e" transform="translate(1530.697266 0)"/>
     <use xlink:href="#DejaVuSans-Oblique-73" transform="translate(1594.076172 0)"/>
     <use xlink:href="#DejaVuSans-Oblique-65" transform="translate(1646.175781 0)"/>
    </g>
   </g>
   <g id="text_39">
    <!-- Perpendicular -->
    <g transform="translate(533.134688 58.34884) scale(0.14 -0.14)">
     <defs>
      <path id="DejaVuSans-Bold-50" d="M 588 4666 
L 2584 4666 
Q 3475 4666 3951 4270 
Q 4428 3875 4428 3144 
Q 4428 2409 3951 2014 
Q 3475 1619 2584 1619 
L 1791 1619 
L 1791 0 
L 588 0 
L 588 4666 
z
M 1791 3794 
L 1791 2491 
L 2456 2491 
Q 2806 2491 2997 2661 
Q 3188 2831 3188 3144 
Q 3188 3456 2997 3625 
Q 2806 3794 2456 3794 
L 1791 3794 
z
" transform="scale(0.015625)"/>
      <path id="DejaVuSans-Bold-70" d="M 1656 506 
L 1656 -1331 
L 538 -1331 
L 538 3500 
L 1656 3500 
L 1656 2988 
Q 1888 3294 2169 3439 
Q 2450 3584 2816 3584 
Q 3463 3584 3878 3070 
Q 4294 2556 4294 1747 
Q 4294 938 3878 423 
Q 3463 -91 2816 -91 
Q 2450 -91 2169 54 
Q 1888 200 1656 506 
z
M 2400 2772 
Q 2041 2772 1848 2508 
Q 1656 2244 1656 1747 
Q 1656 1250 1848 986 
Q 2041 722 2400 722 
Q 2759 722 2948 984 
Q 3138 1247 3138 1747 
Q 3138 2247 2948 2509 
Q 2759 2772 2400 2772 
z
" transform="scale(0.015625)"/>
      <path id="DejaVuSans-Bold-64" d="M 2919 2988 
L 2919 4863 
L 4044 4863 
L 4044 0 
L 2919 0 
L 2919 506 
Q 2688 197 2409 53 
Q 2131 -91 1766 -91 
Q 1119 -91 703 423 
Q 288 938 288 1747 
Q 288 2556 703 3070 
Q 1119 3584 1766 3584 
Q 2128 3584 2408 3439 
Q 2688 3294 2919 2988 
z
M 2181 722 
Q 2541 722 2730 984 
Q 2919 1247 2919 1747 
Q 2919 2247 2730 2509 
Q 2541 2772 2181 2772 
Q 1825 2772 1636 2509 
Q 1447 2247 1447 1747 
Q 1447 1247 1636 984 
Q 1825 722 2181 722 
z
" transform="scale(0.015625)"/>
      <path id="DejaVuSans-Bold-75" d="M 500 1363 
L 500 3500 
L 1625 3500 
L 1625 3150 
Q 1625 2866 1622 2436 
Q 1619 2006 1619 1863 
Q 1619 1441 1641 1255 
Q 1663 1069 1716 984 
Q 1784 875 1895 815 
Q 2006 756 2150 756 
Q 2500 756 2700 1025 
Q 2900 1294 2900 1772 
L 2900 3500 
L 4019 3500 
L 4019 0 
L 2900 0 
L 2900 506 
Q 2647 200 2364 54 
Q 2081 -91 1741 -91 
Q 1134 -91 817 281 
Q 500 653 500 1363 
z
" transform="scale(0.015625)"/>
      <path id="DejaVuSans-Bold-6c" d="M 538 4863 
L 1656 4863 
L 1656 0 
L 538 0 
L 538 4863 
z
" transform="scale(0.015625)"/>
     </defs>
     <use xlink:href="#DejaVuSans-Bold-50"/>
     <use xlink:href="#DejaVuSans-Bold-65" transform="translate(73.291016 0)"/>
     <use xlink:href="#DejaVuSans-Bold-72" transform="translate(141.113281 0)"/>
     <use xlink:href="#DejaVuSans-Bold-70" transform="translate(190.429688 0)"/>
     <use xlink:href="#DejaVuSans-Bold-65" transform="translate(262.011719 0)"/>
     <use xlink:href="#DejaVuSans-Bold-6e" transform="translate(329.833984 0)"/>
     <use xlink:href="#DejaVuSans-Bold-64" transform="translate(401.025391 0)"/>
     <use xlink:href="#DejaVuSans-Bold-69" transform="translate(472.607422 0)"/>
     <use xlink:href="#DejaVuSans-Bold-63" transform="translate(506.884766 0)"/>
     <use xlink:href="#DejaVuSans-Bold-75" transform="translate(566.162109 0)"/>
     <use xlink:href="#DejaVuSans-Bold-6c" transform="translate(637.353516 0)"/>
     <use xlink:href="#DejaVuSans-Bold-61" transform="translate(671.630859 0)"/>
     <use xlink:href="#DejaVuSans-Bold-72" transform="translate(739.111328 0)"/>
    </g>
   </g>
  </g>
  <g id="axes_3">
   <g id="patch_18">
    <path d="M 794.033646 347.679395 
L 1134.030313 347.679395 
L 1134.030313 64.34884 
L 794.033646 64.34884 
z
" style="fill: #fadbd8"/>
   </g>
   <g id="matplotlib.axis_5">
    <g id="xtick_15">
     <g id="line2d_31">
      <g>
       <use xlink:href="#m167a0738ea" x="794.033646" y="347.679395" style="stroke: #000000; stroke-width: 0.8"/>
      </g>
     </g>
     <g id="text_40">
      <!-- −3 -->
      <g transform="translate(786.662552 362.277833) scale(0.1 -0.1)">
       <use xlink:href="#DejaVuSans-2212"/>
       <use xlink:href="#DejaVuSans-33" transform="translate(83.789062 0)"/>
      </g>
     </g>
    </g>
    <g id="xtick_16">
     <g id="line2d_32">
      <g>
       <use xlink:href="#m167a0738ea" x="850.699757" y="347.679395" style="stroke: #000000; stroke-width: 0.8"/>
      </g>
     </g>
     <g id="text_41">
      <!-- −2 -->
      <g transform="translate(843.328663 362.277833) scale(0.1 -0.1)">
       <use xlink:href="#DejaVuSans-2212"/>
       <use xlink:href="#DejaVuSans-32" transform="translate(83.789062 0)"/>
      </g>
     </g>
    </g>
    <g id="xtick_17">
     <g id="line2d_33">
      <g>
       <use xlink:href="#m167a0738ea" x="907.365868" y="347.679395" style="stroke: #000000; stroke-width: 0.8"/>
      </g>
     </g>
     <g id="text_42">
      <!-- −1 -->
      <g transform="translate(899.994774 362.277833) scale(0.1 -0.1)">
       <use xlink:href="#DejaVuSans-2212"/>
       <use xlink:href="#DejaVuSans-31" transform="translate(83.789062 0)"/>
      </g>
     </g>
    </g>
    <g id="xtick_18">
     <g id="line2d_34">
      <g>
       <use xlink:href="#m167a0738ea" x="964.031979" y="347.679395" style="stroke: #000000; stroke-width: 0.8"/>
      </g>
     </g>
     <g id="text_43">
      <!-- 0 -->
      <g transform="translate(960.850729 362.277833) scale(0.1 -0.1)">
       <use xlink:href="#DejaVuSans-30"/>
      </g>
     </g>
    </g>
    <g id="xtick_19">
     <g id="line2d_35">
      <g>
       <use xlink:href="#m167a0738ea" x="1020.69809" y="347.679395" style="stroke: #000000; stroke-width: 0.8"/>
      </g>
     </g>
     <g id="text_44">
      <!-- 1 -->
      <g transform="translate(1017.51684 362.277833) scale(0.1 -0.1)">
       <use xlink:href="#DejaVuSans-31"/>
      </g>
     </g>
    </g>
    <g id="xtick_20">
     <g id="line2d_36">
      <g>
       <use xlink:href="#m167a0738ea" x="1077.364201" y="347.679395" style="stroke: #000000; stroke-width: 0.8"/>
      </g>
     </g>
     <g id="text_45">
      <!-- 2 -->
      <g transform="translate(1074.182951 362.277833) scale(0.1 -0.1)">
       <use xlink:href="#DejaVuSans-32"/>
      </g>
     </g>
    </g>
    <g id="xtick_21">
     <g id="line2d_37">
      <g>
       <use xlink:href="#m167a0738ea" x="1134.030313" y="347.679395" style="stroke: #000000; stroke-width: 0.8"/>
      </g>
     </g>
     <g id="text_46">
      <!-- 3 -->
      <g transform="translate(1130.849062 362.277833) scale(0.1 -0.1)">
       <use xlink:href="#DejaVuSans-33"/>
      </g>
     </g>
    </g>
    <g id="text_47">
     <!-- dim 1 -->
     <g transform="translate(949.828073 375.955958) scale(0.1 -0.1)">
      <use xlink:href="#DejaVuSans-64"/>
      <use xlink:href="#DejaVuSans-69" transform="translate(63.476562 0)"/>
      <use xlink:href="#DejaVuSans-6d" transform="translate(91.259766 0)"/>
      <use xlink:href="#DejaVuSans-20" transform="translate(188.671875 0)"/>
      <use xlink:href="#DejaVuSans-31" transform="translate(220.458984 0)"/>
     </g>
    </g>
   </g>
   <g id="matplotlib.axis_6">
    <g id="ytick_11">
     <g id="line2d_38">
      <g>
       <use xlink:href="#mba3591077e" x="794.033646" y="319.34634" style="stroke: #000000; stroke-width: 0.8"/>
      </g>
     </g>
     <g id="text_48">
      <!-- −2 -->
      <g transform="translate(772.291458 323.145559) scale(0.1 -0.1)">
       <use xlink:href="#DejaVuSans-2212"/>
       <use xlink:href="#DejaVuSans-32" transform="translate(83.789062 0)"/>
      </g>
     </g>
    </g>
    <g id="ytick_12">
     <g id="line2d_39">
      <g>
       <use xlink:href="#mba3591077e" x="794.033646" y="262.680229" style="stroke: #000000; stroke-width: 0.8"/>
      </g>
     </g>
     <g id="text_49">
      <!-- −1 -->
      <g transform="translate(772.291458 266.479448) scale(0.1 -0.1)">
       <use xlink:href="#DejaVuSans-2212"/>
       <use xlink:href="#DejaVuSans-31" transform="translate(83.789062 0)"/>
      </g>
     </g>
    </g>
    <g id="ytick_13">
     <g id="line2d_40">
      <g>
       <use xlink:href="#mba3591077e" x="794.033646" y="206.014118" style="stroke: #000000; stroke-width: 0.8"/>
      </g>
     </g>
     <g id="text_50">
      <!-- 0 -->
      <g transform="translate(780.671146 209.813336) scale(0.1 -0.1)">
       <use xlink:href="#DejaVuSans-30"/>
      </g>
     </g>
    </g>
    <g id="ytick_14">
     <g id="line2d_41">
      <g>
       <use xlink:href="#mba3591077e" x="794.033646" y="149.348007" style="stroke: #000000; stroke-width: 0.8"/>
      </g>
     </g>
     <g id="text_51">
      <!-- 1 -->
      <g transform="translate(780.671146 153.147225) scale(0.1 -0.1)">
       <use xlink:href="#DejaVuSans-31"/>
      </g>
     </g>
    </g>
    <g id="ytick_15">
     <g id="line2d_42">
      <g>
       <use xlink:href="#mba3591077e" x="794.033646" y="92.681895" style="stroke: #000000; stroke-width: 0.8"/>
      </g>
     </g>
     <g id="text_52">
      <!-- 2 -->
      <g transform="translate(780.671146 96.481114) scale(0.1 -0.1)">
       <use xlink:href="#DejaVuSans-32"/>
      </g>
     </g>
    </g>
   </g>
   <g id="line2d_43">
    <path d="M 794.033646 206.014118 
L 1134.030313 206.014118 
" clip-path="url(#pa573544893)" style="fill: none; stroke: #cccccc; stroke-width: 0.8; stroke-linecap: square"/>
   </g>
   <g id="line2d_44">
    <path d="M 964.031979 347.679395 
L 964.031979 64.34884 
" clip-path="url(#pa573544893)" style="fill: none; stroke: #cccccc; stroke-width: 0.8; stroke-linecap: square"/>
   </g>
   <g id="line2d_45">
    <path d="M 999.510577 188.274819 
L 1001.220555 192.214719 
L 1002.494532 196.316404 
L 1003.31757 200.531785 
L 1003.68002 204.811443 
L 1003.577634 209.1052 
L 1003.011611 213.362717 
L 1001.988587 217.534079 
L 1000.520557 221.57038 
L 998.624732 225.424297 
L 996.323338 229.050649 
L 993.643357 232.406917 
L 990.616211 235.453755 
L 987.277388 238.155439 
L 983.666034 240.480296 
L 979.824489 242.401069 
L 975.797791 243.895238 
L 971.63315 244.945285 
L 967.379392 245.5389 
L 963.086389 245.669123 
L 958.804472 245.334427 
L 954.583842 244.538737 
L 950.473984 243.291381 
L 946.52308 241.606983 
L 942.777452 239.505291 
L 939.281014 237.010946 
L 936.074759 234.153191 
L 933.196276 230.965531 
L 930.679314 227.485339 
L 928.553382 223.753416 
" clip-path="url(#pa573544893)" style="fill: none; stroke: #9b59b6; stroke-width: 2; stroke-linecap: square"/>
   </g>
   <g id="patch_19">
    <path d="M 794.033646 347.679395 
L 794.033646 64.34884 
" style="fill: none; stroke: #000000; stroke-width: 0.8; stroke-linejoin: miter; stroke-linecap: square"/>
   </g>
   <g id="patch_20">
    <path d="M 1134.030313 347.679395 
L 1134.030313 64.34884 
" style="fill: none; stroke: #000000; stroke-width: 0.8; stroke-linejoin: miter; stroke-linecap: square"/>
   </g>
   <g id="patch_21">
    <path d="M 794.033646 347.679395 
L 1134.030313 347.679395 
" style="fill: none; stroke: #000000; stroke-width: 0.8; stroke-linejoin: miter; stroke-linecap: square"/>
   </g>
   <g id="patch_22">
    <path d="M 794.033646 64.34884 
L 1134.030313 64.34884 
" style="fill: none; stroke: #000000; stroke-width: 0.8; stroke-linejoin: miter; stroke-linecap: square"/>
   </g>
   <g id="patch_23">
    <path d="M 965.820088 205.120063 
Q 1020.69858 177.680817 1072.577072 151.741571 
" style="fill: none; stroke: #2980b9; stroke-width: 3; stroke-linecap: round"/>
    <path d="M 1068.104936 151.741571 
L 1072.577072 151.741571 
L 1069.89379 155.31928 
" style="fill: none; stroke: #2980b9; stroke-width: 3; stroke-linecap: round"/>
   </g>
   <g id="patch_24">
    <path d="M 962.244735 206.90774 
Q 921.533921 227.263147 883.823108 246.118553 
" style="fill: none; stroke: #e74c3c; stroke-width: 3; stroke-linecap: round"/>
    <path d="M 888.295244 246.118553 
L 883.823108 246.118553 
L 886.50639 242.540844 
" style="fill: none; stroke: #e74c3c; stroke-width: 3; stroke-linecap: round"/>
   </g>
   <g id="text_53">
    <!-- w -->
    <g style="fill: #2980b9" transform="translate(1085.864118 138.014784) scale(0.15 -0.15)">
     <use xlink:href="#DejaVuSans-Bold-77"/>
    </g>
   </g>
   <g id="text_54">
    <!-- x -->
    <g style="fill: #e74c3c" transform="translate(887.532729 237.180479) scale(0.15 -0.15)">
     <use xlink:href="#DejaVuSans-Bold-78"/>
    </g>
   </g>
   <g id="text_55">
    <!-- 180° -->
    <g style="fill: #9b59b6" transform="translate(973.342935 258.995404) scale(0.12 -0.12)">
     <defs>
      <path id="DejaVuSans-Bold-31" d="M 750 831 
L 1813 831 
L 1813 3847 
L 722 3622 
L 722 4441 
L 1806 4666 
L 2950 4666 
L 2950 831 
L 4013 831 
L 4013 0 
L 750 0 
L 750 831 
z
" transform="scale(0.015625)"/>
      <path id="DejaVuSans-Bold-38" d="M 2228 2088 
Q 1891 2088 1709 1903 
Q 1528 1719 1528 1375 
Q 1528 1031 1709 848 
Q 1891 666 2228 666 
Q 2563 666 2741 848 
Q 2919 1031 2919 1375 
Q 2919 1722 2741 1905 
Q 2563 2088 2228 2088 
z
M 1350 2484 
Q 925 2613 709 2878 
Q 494 3144 494 3541 
Q 494 4131 934 4440 
Q 1375 4750 2228 4750 
Q 3075 4750 3515 4442 
Q 3956 4134 3956 3541 
Q 3956 3144 3739 2878 
Q 3522 2613 3097 2484 
Q 3572 2353 3814 2058 
Q 4056 1763 4056 1313 
Q 4056 619 3595 264 
Q 3134 -91 2228 -91 
Q 1319 -91 855 264 
Q 391 619 391 1313 
Q 391 1763 633 2058 
Q 875 2353 1350 2484 
z
M 1631 3419 
Q 1631 3141 1786 2991 
Q 1941 2841 2228 2841 
Q 2509 2841 2662 2991 
Q 2816 3141 2816 3419 
Q 2816 3697 2662 3845 
Q 2509 3994 2228 3994 
Q 1941 3994 1786 3844 
Q 1631 3694 1631 3419 
z
" transform="scale(0.015625)"/>
     </defs>
     <use xlink:href="#DejaVuSans-Bold-31"/>
     <use xlink:href="#DejaVuSans-Bold-38" transform="translate(69.580078 0)"/>
     <use xlink:href="#DejaVuSans-Bold-30" transform="translate(139.160156 0)"/>
     <use xlink:href="#DejaVuSans-Bold-b0" transform="translate(208.740234 0)"/>
    </g>
   </g>
   <g id="text_56">
    <g id="patch_25">
     <path d="M 919.472604 315.12468 
L 1008.591354 315.12468 
Q 1012.791354 315.12468 1012.791354 310.92468 
L 1012.791354 297.375305 
Q 1012.791354 293.175305 1008.591354 293.175305 
L 919.472604 293.175305 
Q 915.272604 293.175305 915.272604 297.375305 
L 915.272604 310.92468 
Q 915.272604 315.12468 919.472604 315.12468 
z
" style="fill: #ffffff; opacity: 0.9; stroke: #333333; stroke-linejoin: miter"/>
    </g>
    <!-- w · x = -3.8 -->
    <g style="fill: #333333" transform="translate(919.472604 308.013118) scale(0.14 -0.14)">
     <defs>
      <path id="DejaVuSans-Bold-2d" d="M 347 2297 
L 2309 2297 
L 2309 1388 
L 347 1388 
L 347 2297 
z
" transform="scale(0.015625)"/>
      <path id="DejaVuSans-Bold-33" d="M 2981 2516 
Q 3453 2394 3698 2092 
Q 3944 1791 3944 1325 
Q 3944 631 3412 270 
Q 2881 -91 1863 -91 
Q 1503 -91 1142 -33 
Q 781 25 428 141 
L 428 1069 
Q 766 900 1098 814 
Q 1431 728 1753 728 
Q 2231 728 2486 893 
Q 2741 1059 2741 1369 
Q 2741 1688 2480 1852 
Q 2219 2016 1709 2016 
L 1228 2016 
L 1228 2791 
L 1734 2791 
Q 2188 2791 2409 2933 
Q 2631 3075 2631 3366 
Q 2631 3634 2415 3781 
Q 2200 3928 1806 3928 
Q 1516 3928 1219 3862 
Q 922 3797 628 3669 
L 628 4550 
Q 984 4650 1334 4700 
Q 1684 4750 2022 4750 
Q 2931 4750 3382 4451 
Q 3834 4153 3834 3553 
Q 3834 3144 3618 2883 
Q 3403 2622 2981 2516 
z
" transform="scale(0.015625)"/>
     </defs>
     <use xlink:href="#DejaVuSans-Bold-77"/>
     <use xlink:href="#DejaVuSans-Bold-20" transform="translate(92.382812 0)"/>
     <use xlink:href="#DejaVuSans-Bold-b7" transform="translate(127.197266 0)"/>
     <use xlink:href="#DejaVuSans-Bold-20" transform="translate(165.185547 0)"/>
     <use xlink:href="#DejaVuSans-Bold-78" transform="translate(200 0)"/>
     <use xlink:href="#DejaVuSans-Bold-20" transform="translate(264.501953 0)"/>
     <use xlink:href="#DejaVuSans-Bold-3d" transform="translate(299.316406 0)"/>
     <use xlink:href="#DejaVuSans-Bold-20" transform="translate(383.105469 0)"/>
     <use xlink:href="#DejaVuSans-Bold-2d" transform="translate(417.919922 0)"/>
     <use xlink:href="#DejaVuSans-Bold-33" transform="translate(459.423828 0)"/>
     <use xlink:href="#DejaVuSans-Bold-2e" transform="translate(529.003906 0)"/>
     <use xlink:href="#DejaVuSans-Bold-38" transform="translate(566.992188 0)"/>
    </g>
   </g>
   <g id="text_57">
    <!-- Vectors oppose → negative response -->
    <g style="fill: #555555" transform="translate(872.016354 336.346173) scale(0.1 -0.1)">
     <defs>
      <path id="DejaVuSans-Oblique-76" d="M 459 3500 
L 1069 3500 
L 1581 525 
L 3256 3500 
L 3866 3500 
L 1875 0 
L 1100 0 
L 459 3500 
z
" transform="scale(0.015625)"/>
     </defs>
     <use xlink:href="#DejaVuSans-Oblique-56"/>
     <use xlink:href="#DejaVuSans-Oblique-65" transform="translate(62.533203 0)"/>
     <use xlink:href="#DejaVuSans-Oblique-63" transform="translate(124.056641 0)"/>
     <use xlink:href="#DejaVuSans-Oblique-74" transform="translate(179.037109 0)"/>
     <use xlink:href="#DejaVuSans-Oblique-6f" transform="translate(218.246094 0)"/>
     <use xlink:href="#DejaVuSans-Oblique-72" transform="translate(279.427734 0)"/>
     <use xlink:href="#DejaVuSans-Oblique-73" transform="translate(320.541016 0)"/>
     <use xlink:href="#DejaVuSans-Oblique-20" transform="translate(372.640625 0)"/>
     <use xlink:href="#DejaVuSans-Oblique-6f" transform="translate(404.427734 0)"/>
     <use xlink:href="#DejaVuSans-Oblique-70" transform="translate(465.609375 0)"/>
     <use xlink:href="#DejaVuSans-Oblique-70" transform="translate(529.085938 0)"/>
     <use xlink:href="#DejaVuSans-Oblique-6f" transform="translate(592.5625 0)"/>
     <use xlink:href="#DejaVuSans-Oblique-73" transform="translate(653.744141 0)"/>
     <use xlink:href="#DejaVuSans-Oblique-65" transform="translate(705.84375 0)"/>
     <use xlink:href="#DejaVuSans-Oblique-20" transform="translate(767.367188 0)"/>
     <use xlink:href="#DejaVuSans-Oblique-2192" transform="translate(799.154297 0)"/>
     <use xlink:href="#DejaVuSans-Oblique-20" transform="translate(882.943359 0)"/>
     <use xlink:href="#DejaVuSans-Oblique-6e" transform="translate(914.730469 0)"/>
     <use xlink:href="#DejaVuSans-Oblique-65" transform="translate(978.109375 0)"/>
     <use xlink:href="#DejaVuSans-Oblique-67" transform="translate(1039.632812 0)"/>
     <use xlink:href="#DejaVuSans-Oblique-61" transform="translate(1103.109375 0)"/>
     <use xlink:href="#DejaVuSans-Oblique-74" transform="translate(1164.388672 0)"/>
     <use xlink:href="#DejaVuSans-Oblique-69" transform="translate(1203.597656 0)"/>
     <use xlink:href="#DejaVuSans-Oblique-76" transform="translate(1231.380859 0)"/>
     <use xlink:href="#DejaVuSans-Oblique-65" transform="translate(1290.560547 0)"/>
     <use xlink:href="#DejaVuSans-Oblique-20" transform="translate(1352.083984 0)"/>
     <use xlink:href="#DejaVuSans-Oblique-72" transform="translate(1383.871094 0)"/>
     <use xlink:href="#DejaVuSans-Oblique-65" transform="translate(1424.984375 0)"/>
     <use xlink:href="#DejaVuSans-Oblique-73" transform="translate(1486.507812 0)"/>
     <use xlink:href="#DejaVuSans-Oblique-70" transform="translate(1538.607422 0)"/>
     <use xlink:href="#DejaVuSans-Oblique-6f" transform="translate(1602.083984 0)"/>
     <use xlink:href="#DejaVuSans-Oblique-6e" transform="translate(1663.265625 0)"/>
     <use xlink:href="#DejaVuSans-Oblique-73" transform="translate(1726.644531 0)"/>
     <use xlink:href="#DejaVuSans-Oblique-65" transform="translate(1778.744141 0)"/>
    </g>
   </g>
   <g id="text_58">
    <!-- Opposite Direction -->
    <g transform="translate(890.056198 58.34884) scale(0.14 -0.14)">
     <defs>
      <path id="DejaVuSans-Bold-4f" d="M 2719 3878 
Q 2169 3878 1866 3472 
Q 1563 3066 1563 2328 
Q 1563 1594 1866 1187 
Q 2169 781 2719 781 
Q 3272 781 3575 1187 
Q 3878 1594 3878 2328 
Q 3878 3066 3575 3472 
Q 3272 3878 2719 3878 
z
M 2719 4750 
Q 3844 4750 4481 4106 
Q 5119 3463 5119 2328 
Q 5119 1197 4481 553 
Q 3844 -91 2719 -91 
Q 1597 -91 958 553 
Q 319 1197 319 2328 
Q 319 3463 958 4106 
Q 1597 4750 2719 4750 
z
" transform="scale(0.015625)"/>
      <path id="DejaVuSans-Bold-73" d="M 3272 3391 
L 3272 2541 
Q 2913 2691 2578 2766 
Q 2244 2841 1947 2841 
Q 1628 2841 1473 2761 
Q 1319 2681 1319 2516 
Q 1319 2381 1436 2309 
Q 1553 2238 1856 2203 
L 2053 2175 
Q 2913 2066 3209 1816 
Q 3506 1566 3506 1031 
Q 3506 472 3093 190 
Q 2681 -91 1863 -91 
Q 1516 -91 1145 -36 
Q 775 19 384 128 
L 384 978 
Q 719 816 1070 734 
Q 1422 653 1784 653 
Q 2113 653 2278 743 
Q 2444 834 2444 1013 
Q 2444 1163 2330 1236 
Q 2216 1309 1875 1350 
L 1678 1375 
Q 931 1469 631 1722 
Q 331 1975 331 2491 
Q 331 3047 712 3315 
Q 1094 3584 1881 3584 
Q 2191 3584 2531 3537 
Q 2872 3491 3272 3391 
z
" transform="scale(0.015625)"/>
     </defs>
     <use xlink:href="#DejaVuSans-Bold-4f"/>
     <use xlink:href="#DejaVuSans-Bold-70" transform="translate(85.009766 0)"/>
     <use xlink:href="#DejaVuSans-Bold-70" transform="translate(156.591797 0)"/>
     <use xlink:href="#DejaVuSans-Bold-6f" transform="translate(228.173828 0)"/>
     <use xlink:href="#DejaVuSans-Bold-73" transform="translate(296.875 0)"/>
     <use xlink:href="#DejaVuSans-Bold-69" transform="translate(356.396484 0)"/>
     <use xlink:href="#DejaVuSans-Bold-74" transform="translate(390.673828 0)"/>
     <use xlink:href="#DejaVuSans-Bold-65" transform="translate(438.476562 0)"/>
     <use xlink:href="#DejaVuSans-Bold-20" transform="translate(506.298828 0)"/>
     <use xlink:href="#DejaVuSans-Bold-44" transform="translate(541.113281 0)"/>
     <use xlink:href="#DejaVuSans-Bold-69" transform="translate(624.121094 0)"/>
     <use xlink:href="#DejaVuSans-Bold-72" transform="translate(658.398438 0)"/>
     <use xlink:href="#DejaVuSans-Bold-65" transform="translate(707.714844 0)"/>
     <use xlink:href="#DejaVuSans-Bold-63" transform="translate(775.537109 0)"/>
     <use xlink:href="#DejaVuSans-Bold-74" transform="translate(834.814453 0)"/>
     <use xlink:href="#DejaVuSans-Bold-69" transform="translate(882.617188 0)"/>
     <use xlink:href="#DejaVuSans-Bold-6f" transform="translate(916.894531 0)"/>
     <use xlink:href="#DejaVuSans-Bold-6e" transform="translate(985.595703 0)"/>
    </g>
   </g>
  </g>
  <g id="text_59">
   <!-- The Dot Product Measures Alignment -->
   <g transform="translate(403.254062 19.3575) scale(0.16 -0.16)">
    <defs>
     <path id="DejaVuSans-Bold-54" d="M 31 4666 
L 4331 4666 
L 4331 3756 
L 2784 3756 
L 2784 0 
L 1581 0 
L 1581 3756 
L 31 3756 
L 31 4666 
z
" transform="scale(0.015625)"/>
     <path id="DejaVuSans-Bold-68" d="M 4056 2131 
L 4056 0 
L 2931 0 
L 2931 347 
L 2931 1625 
Q 2931 2084 2911 2256 
Q 2891 2428 2841 2509 
Q 2775 2619 2662 2680 
Q 2550 2741 2406 2741 
Q 2056 2741 1856 2470 
Q 1656 2200 1656 1722 
L 1656 0 
L 538 0 
L 538 4863 
L 1656 4863 
L 1656 2988 
Q 1909 3294 2193 3439 
Q 2478 3584 2822 3584 
Q 3428 3584 3742 3212 
Q 4056 2841 4056 2131 
z
" transform="scale(0.015625)"/>
     <path id="DejaVuSans-Bold-4d" d="M 588 4666 
L 2119 4666 
L 3181 2169 
L 4250 4666 
L 5778 4666 
L 5778 0 
L 4641 0 
L 4641 3413 
L 3566 897 
L 2803 897 
L 1728 3413 
L 1728 0 
L 588 0 
L 588 4666 
z
" transform="scale(0.015625)"/>
     <path id="DejaVuSans-Bold-41" d="M 3419 850 
L 1538 850 
L 1241 0 
L 31 0 
L 1759 4666 
L 3194 4666 
L 4922 0 
L 3713 0 
L 3419 850 
z
M 1838 1716 
L 3116 1716 
L 2478 3572 
L 1838 1716 
z
" transform="scale(0.015625)"/>
     <path id="DejaVuSans-Bold-67" d="M 2919 594 
Q 2688 288 2409 144 
Q 2131 0 1766 0 
Q 1125 0 706 504 
Q 288 1009 288 1791 
Q 288 2575 706 3076 
Q 1125 3578 1766 3578 
Q 2131 3578 2409 3434 
Q 2688 3291 2919 2981 
L 2919 3500 
L 4044 3500 
L 4044 353 
Q 4044 -491 3511 -936 
Q 2978 -1381 1966 -1381 
Q 1638 -1381 1331 -1331 
Q 1025 -1281 716 -1178 
L 716 -306 
Q 1009 -475 1290 -558 
Q 1572 -641 1856 -641 
Q 2406 -641 2662 -400 
Q 2919 -159 2919 353 
L 2919 594 
z
M 2181 2772 
Q 1834 2772 1640 2515 
Q 1447 2259 1447 1791 
Q 1447 1309 1634 1061 
Q 1822 813 2181 813 
Q 2531 813 2725 1069 
Q 2919 1325 2919 1791 
Q 2919 2259 2725 2515 
Q 2531 2772 2181 2772 
z
" transform="scale(0.015625)"/>
    </defs>
    <use xlink:href="#DejaVuSans-Bold-54"/>
    <use xlink:href="#DejaVuSans-Bold-68" transform="translate(68.212891 0)"/>
    <use xlink:href="#DejaVuSans-Bold-65" transform="translate(139.404297 0)"/>
    <use xlink:href="#DejaVuSans-Bold-20" transform="translate(207.226562 0)"/>
    <use xlink:href="#DejaVuSans-Bold-44" transform="translate(242.041016 0)"/>
    <use xlink:href="#DejaVuSans-Bold-6f" transform="translate(325.048828 0)"/>
    <use xlink:href="#DejaVuSans-Bold-74" transform="translate(393.75 0)"/>
    <use xlink:href="#DejaVuSans-Bold-20" transform="translate(441.552734 0)"/>
    <use xlink:href="#DejaVuSans-Bold-50" transform="translate(476.367188 0)"/>
    <use xlink:href="#DejaVuSans-Bold-72" transform="translate(549.658203 0)"/>
    <use xlink:href="#DejaVuSans-Bold-6f" transform="translate(598.974609 0)"/>
    <use xlink:href="#DejaVuSans-Bold-64" transform="translate(667.675781 0)"/>
    <use xlink:href="#DejaVuSans-Bold-75" transform="translate(739.257812 0)"/>
    <use xlink:href="#DejaVuSans-Bold-63" transform="translate(810.449219 0)"/>
    <use xlink:href="#DejaVuSans-Bold-74" transform="translate(869.726562 0)"/>
    <use xlink:href="#DejaVuSans-Bold-20" transform="translate(917.529297 0)"/>
    <use xlink:href="#DejaVuSans-Bold-4d" transform="translate(952.34375 0)"/>
    <use xlink:href="#DejaVuSans-Bold-65" transform="translate(1051.855469 0)"/>
    <use xlink:href="#DejaVuSans-Bold-61" transform="translate(1119.677734 0)"/>
    <use xlink:href="#DejaVuSans-Bold-73" transform="translate(1187.158203 0)"/>
    <use xlink:href="#DejaVuSans-Bold-75" transform="translate(1246.679688 0)"/>
    <use xlink:href="#DejaVuSans-Bold-72" transform="translate(1317.871094 0)"/>
    <use xlink:href="#DejaVuSans-Bold-65" transform="translate(1367.1875 0)"/>
    <use xlink:href="#DejaVuSans-Bold-73" transform="translate(1435.009766 0)"/>
    <use xlink:href="#DejaVuSans-Bold-20" transform="translate(1494.53125 0)"/>
    <use xlink:href="#DejaVuSans-Bold-41" transform="translate(1529.345703 0)"/>
    <use xlink:href="#DejaVuSans-Bold-6c" transform="translate(1606.738281 0)"/>
    <use xlink:href="#DejaVuSans-Bold-69" transform="translate(1641.015625 0)"/>
    <use xlink:href="#DejaVuSans-Bold-67" transform="translate(1675.292969 0)"/>
    <use xlink:href="#DejaVuSans-Bold-6e" transform="translate(1746.875 0)"/>
    <use xlink:href="#DejaVuSans-Bold-6d" transform="translate(1818.066406 0)"/>
    <use xlink:href="#DejaVuSans-Bold-65" transform="translate(1922.265625 0)"/>
    <use xlink:href="#DejaVuSans-Bold-6e" transform="translate(1990.087891 0)"/>
    <use xlink:href="#DejaVuSans-Bold-74" transform="translate(2061.279297 0)"/>
   </g>
  </g>
  <g id="text_60">
   <!-- w · x = |w| |x| cos(θ)  —  Two vectors in, one scalar out. -->
   <g style="fill: #555555" transform="translate(418.816484 368.976469) scale(0.11 -0.11)">
    <defs>
     <path id="DejaVuSans-Oblique-77" d="M 544 3500 
L 1113 3500 
L 1259 684 
L 2566 3500 
L 3231 3500 
L 3425 684 
L 4666 3500 
L 5241 3500 
L 3641 0 
L 2969 0 
L 2797 2900 
L 1459 0 
L 781 0 
L 544 3500 
z
" transform="scale(0.015625)"/>
     <path id="DejaVuSans-Oblique-b7" d="M 884 2619 
L 1544 2619 
L 1388 1825 
L 728 1825 
L 884 2619 
z
" transform="scale(0.015625)"/>
     <path id="DejaVuSans-Oblique-78" d="M 3841 3500 
L 2234 1784 
L 3219 0 
L 2559 0 
L 1819 1388 
L 531 0 
L -166 0 
L 1556 1844 
L 641 3500 
L 1300 3500 
L 1972 2234 
L 3144 3500 
L 3841 3500 
z
" transform="scale(0.015625)"/>
     <path id="DejaVuSans-Oblique-3d" d="M 678 2906 
L 4684 2906 
L 4684 2381 
L 678 2381 
L 678 2906 
z
M 678 1631 
L 4684 1631 
L 4684 1100 
L 678 1100 
L 678 1631 
z
" transform="scale(0.015625)"/>
     <path id="DejaVuSans-Oblique-7c" d="M 1344 4891 
L 1344 -1509 
L 813 -1509 
L 813 4891 
L 1344 4891 
z
" transform="scale(0.015625)"/>
     <path id="DejaVuSans-Oblique-28" d="M 2731 4856 
Q 1903 3822 1495 2892 
Q 1088 1963 1088 1100 
Q 1088 606 1206 120 
Q 1325 -366 1563 -844 
L 1063 -844 
Q 775 -306 634 201 
Q 494 709 494 1197 
Q 494 2125 923 3036 
Q 1353 3947 2222 4856 
L 2731 4856 
z
" transform="scale(0.015625)"/>
     <path id="DejaVuSans-Oblique-3b8" d="M 2913 2219 
L 925 2219 
Q 791 1284 928 888 
Q 1100 400 1566 400 
Q 2034 400 2391 891 
Q 2703 1322 2913 2219 
z
M 3009 2750 
Q 3094 3638 2984 3950 
Q 2813 4444 2353 4444 
Q 1875 4444 1525 3956 
Q 1250 3563 1034 2750 
L 3009 2750 
z
M 2444 4913 
Q 3194 4913 3494 4250 
Q 3794 3591 3566 2422 
Q 3341 1256 2781 594 
Q 2225 -72 1475 -72 
Q 722 -72 425 594 
Q 128 1256 353 2422 
Q 581 3591 1134 4250 
Q 1691 4913 2444 4913 
z
" transform="scale(0.015625)"/>
     <path id="DejaVuSans-Oblique-29" d="M -397 -844 
Q 434 191 840 1120 
Q 1247 2050 1247 2913 
Q 1247 3406 1130 3892 
Q 1013 4378 775 4856 
L 1275 4856 
Q 1563 4316 1703 3812 
Q 1844 3309 1844 2822 
Q 1844 1891 1411 973 
Q 978 56 116 -844 
L -397 -844 
z
" transform="scale(0.015625)"/>
     <path id="DejaVuSans-Oblique-2014" d="M 356 1978 
L 6131 1978 
L 6044 1528 
L 269 1528 
L 356 1978 
z
" transform="scale(0.015625)"/>
     <path id="DejaVuSans-Oblique-54" d="M 378 4666 
L 4325 4666 
L 4225 4134 
L 2559 4134 
L 1759 0 
L 1125 0 
L 1925 4134 
L 275 4134 
L 378 4666 
z
" transform="scale(0.015625)"/>
     <path id="DejaVuSans-Oblique-2c" d="M 575 794 
L 1234 794 
L 1131 256 
L 422 -744 
L 19 -744 
L 469 256 
L 575 794 
z
" transform="scale(0.015625)"/>
     <path id="DejaVuSans-Oblique-75" d="M 428 1388 
L 838 3500 
L 1416 3500 
L 1006 1409 
Q 975 1256 961 1147 
Q 947 1038 947 966 
Q 947 700 1109 554 
Q 1272 409 1569 409 
Q 2031 409 2368 721 
Q 2706 1034 2809 1563 
L 3194 3500 
L 3769 3500 
L 3091 0 
L 2516 0 
L 2631 550 
Q 2388 244 2052 76 
Q 1716 -91 1338 -91 
Q 878 -91 622 161 
Q 366 413 366 863 
Q 366 956 381 1097 
Q 397 1238 428 1388 
z
" transform="scale(0.015625)"/>
     <path id="DejaVuSans-Oblique-2e" d="M 525 794 
L 1184 794 
L 1031 0 
L 372 0 
L 525 794 
z
" transform="scale(0.015625)"/>
    </defs>
    <use xlink:href="#DejaVuSans-Oblique-77"/>
    <use xlink:href="#DejaVuSans-Oblique-20" transform="translate(81.787109 0)"/>
    <use xlink:href="#DejaVuSans-Oblique-b7" transform="translate(113.574219 0)"/>
    <use xlink:href="#DejaVuSans-Oblique-20" transform="translate(145.361328 0)"/>
    <use xlink:href="#DejaVuSans-Oblique-78" transform="translate(177.148438 0)"/>
    <use xlink:href="#DejaVuSans-Oblique-20" transform="translate(236.328125 0)"/>
    <use xlink:href="#DejaVuSans-Oblique-3d" transform="translate(268.115234 0)"/>
    <use xlink:href="#DejaVuSans-Oblique-20" transform="translate(351.904297 0)"/>
    <use xlink:href="#DejaVuSans-Oblique-7c" transform="translate(383.691406 0)"/>
    <use xlink:href="#DejaVuSans-Oblique-77" transform="translate(417.382812 0)"/>
    <use xlink:href="#DejaVuSans-Oblique-7c" transform="translate(499.169922 0)"/>
    <use xlink:href="#DejaVuSans-Oblique-20" transform="translate(532.861328 0)"/>
    <use xlink:href="#DejaVuSans-Oblique-7c" transform="translate(564.648438 0)"/>
    <use xlink:href="#DejaVuSans-Oblique-78" transform="translate(598.339844 0)"/>
    <use xlink:href="#DejaVuSans-Oblique-7c" transform="translate(657.519531 0)"/>
    <use xlink:href="#DejaVuSans-Oblique-20" transform="translate(691.210938 0)"/>
    <use xlink:href="#DejaVuSans-Oblique-63" transform="translate(722.998047 0)"/>
    <use xlink:href="#DejaVuSans-Oblique-6f" transform="translate(777.978516 0)"/>
    <use xlink:href="#DejaVuSans-Oblique-73" transform="translate(839.160156 0)"/>
    <use xlink:href="#DejaVuSans-Oblique-28" transform="translate(891.259766 0)"/>
    <use xlink:href="#DejaVuSans-Oblique-3b8" transform="translate(930.273438 0)"/>
    <use xlink:href="#DejaVuSans-Oblique-29" transform="translate(991.455078 0)"/>
    <use xlink:href="#DejaVuSans-Oblique-20" transform="translate(1030.46875 0)"/>
    <use xlink:href="#DejaVuSans-Oblique-20" transform="translate(1062.255859 0)"/>
    <use xlink:href="#DejaVuSans-Oblique-2014" transform="translate(1094.042969 0)"/>
    <use xlink:href="#DejaVuSans-Oblique-20" transform="translate(1194.042969 0)"/>
    <use xlink:href="#DejaVuSans-Oblique-20" transform="translate(1225.830078 0)"/>
    <use xlink:href="#DejaVuSans-Oblique-54" transform="translate(1257.617188 0)"/>
    <use xlink:href="#DejaVuSans-Oblique-77" transform="translate(1310.576172 0)"/>
    <use xlink:href="#DejaVuSans-Oblique-6f" transform="translate(1392.363281 0)"/>
    <use xlink:href="#DejaVuSans-Oblique-20" transform="translate(1453.544922 0)"/>
    <use xlink:href="#DejaVuSans-Oblique-76" transform="translate(1485.332031 0)"/>
    <use xlink:href="#DejaVuSans-Oblique-65" transform="translate(1544.511719 0)"/>
    <use xlink:href="#DejaVuSans-Oblique-63" transform="translate(1606.035156 0)"/>
    <use xlink:href="#DejaVuSans-Oblique-74" transform="translate(1661.015625 0)"/>
    <use xlink:href="#DejaVuSans-Oblique-6f" transform="translate(1700.224609 0)"/>
    <use xlink:href="#DejaVuSans-Oblique-72" transform="translate(1761.40625 0)"/>
    <use xlink:href="#DejaVuSans-Oblique-73" transform="translate(1802.519531 0)"/>
    <use xlink:href="#DejaVuSans-Oblique-20" transform="translate(1854.619141 0)"/>
    <use xlink:href="#DejaVuSans-Oblique-69" transform="translate(1886.40625 0)"/>
    <use xlink:href="#DejaVuSans-Oblique-6e" transform="translate(1914.189453 0)"/>
    <use xlink:href="#DejaVuSans-Oblique-2c" transform="translate(1977.568359 0)"/>
    <use xlink:href="#DejaVuSans-Oblique-20" transform="translate(2009.355469 0)"/>
    <use xlink:href="#DejaVuSans-Oblique-6f" transform="translate(2041.142578 0)"/>
    <use xlink:href="#DejaVuSans-Oblique-6e" transform="translate(2102.324219 0)"/>
    <use xlink:href="#DejaVuSans-Oblique-65" transform="translate(2165.703125 0)"/>
    <use xlink:href="#DejaVuSans-Oblique-20" transform="translate(2227.226562 0)"/>
    <use xlink:href="#DejaVuSans-Oblique-73" transform="translate(2259.013672 0)"/>
    <use xlink:href="#DejaVuSans-Oblique-63" transform="translate(2311.113281 0)"/>
    <use xlink:href="#DejaVuSans-Oblique-61" transform="translate(2366.09375 0)"/>
    <use xlink:href="#DejaVuSans-Oblique-6c" transform="translate(2427.373047 0)"/>
    <use xlink:href="#DejaVuSans-Oblique-61" transform="translate(2455.15625 0)"/>
    <use xlink:href="#DejaVuSans-Oblique-72" transform="translate(2516.435547 0)"/>
    <use xlink:href="#DejaVuSans-Oblique-20" transform="translate(2557.548828 0)"/>
    <use xlink:href="#DejaVuSans-Oblique-6f" transform="translate(2589.335938 0)"/>
    <use xlink:href="#DejaVuSans-Oblique-75" transform="translate(2650.517578 0)"/>
    <use xlink:href="#DejaVuSans-Oblique-74" transform="translate(2713.896484 0)"/>
    <use xlink:href="#DejaVuSans-Oblique-2e" transform="translate(2753.105469 0)"/>
   </g>
   <!-- The result depends on direction (angle between vectors) and magnitude (length of both). -->
   <g style="fill: #555555" transform="translate(325.309609 381.6) scale(0.11 -0.11)">
    <defs>
     <path id="DejaVuSans-Oblique-64" d="M 2675 525 
Q 2444 222 2128 65 
Q 1813 -91 1428 -91 
Q 903 -91 598 267 
Q 294 625 294 1247 
Q 294 1766 478 2236 
Q 663 2706 1013 3078 
Q 1244 3325 1534 3454 
Q 1825 3584 2144 3584 
Q 2481 3584 2739 3421 
Q 2997 3259 3138 2956 
L 3513 4863 
L 4091 4863 
L 3144 0 
L 2566 0 
L 2675 525 
z
M 891 1350 
Q 891 897 1095 644 
Q 1300 391 1663 391 
Q 1931 391 2161 520 
Q 2391 650 2566 903 
Q 2750 1166 2856 1509 
Q 2963 1853 2963 2188 
Q 2963 2622 2758 2865 
Q 2553 3109 2194 3109 
Q 1922 3109 1687 2981 
Q 1453 2853 1288 2613 
Q 1106 2353 998 2009 
Q 891 1666 891 1350 
z
" transform="scale(0.015625)"/>
     <path id="DejaVuSans-Oblique-62" d="M 3169 2138 
Q 3169 2591 2961 2847 
Q 2753 3103 2388 3103 
Q 2122 3103 1889 2973 
Q 1656 2844 1484 2597 
Q 1303 2338 1198 1995 
Q 1094 1653 1094 1313 
Q 1094 881 1298 636 
Q 1503 391 1863 391 
Q 2134 391 2365 517 
Q 2597 644 2772 891 
Q 2950 1147 3059 1487 
Q 3169 1828 3169 2138 
z
M 1381 2969 
Q 1594 3256 1914 3420 
Q 2234 3584 2584 3584 
Q 3122 3584 3439 3221 
Q 3756 2859 3756 2241 
Q 3756 1734 3570 1259 
Q 3384 784 3041 416 
Q 2816 172 2522 40 
Q 2228 -91 1906 -91 
Q 1566 -91 1316 65 
Q 1066 222 909 531 
L 806 0 
L 231 0 
L 1178 4863 
L 1753 4863 
L 1381 2969 
z
" transform="scale(0.015625)"/>
     <path id="DejaVuSans-Oblique-6d" d="M 5747 2113 
L 5338 0 
L 4763 0 
L 5166 2094 
Q 5191 2228 5203 2325 
Q 5216 2422 5216 2491 
Q 5216 2772 5059 2928 
Q 4903 3084 4622 3084 
Q 4203 3084 3875 2770 
Q 3547 2456 3450 1953 
L 3066 0 
L 2491 0 
L 2900 2094 
Q 2925 2209 2937 2307 
Q 2950 2406 2950 2484 
Q 2950 2769 2794 2926 
Q 2638 3084 2363 3084 
Q 1938 3084 1609 2770 
Q 1281 2456 1184 1953 
L 800 0 
L 225 0 
L 909 3500 
L 1484 3500 
L 1375 2956 
Q 1609 3263 1923 3423 
Q 2238 3584 2597 3584 
Q 2978 3584 3223 3384 
Q 3469 3184 3519 2828 
Q 3781 3197 4126 3390 
Q 4472 3584 4856 3584 
Q 5306 3584 5551 3325 
Q 5797 3066 5797 2591 
Q 5797 2488 5784 2364 
Q 5772 2241 5747 2113 
z
" transform="scale(0.015625)"/>
     <path id="DejaVuSans-Oblique-66" d="M 3059 4863 
L 2969 4384 
L 2419 4384 
Q 2106 4384 1964 4261 
Q 1822 4138 1753 3809 
L 1691 3500 
L 2638 3500 
L 2553 3053 
L 1606 3053 
L 1013 0 
L 434 0 
L 1031 3053 
L 481 3053 
L 563 3500 
L 1113 3500 
L 1159 3744 
Q 1278 4363 1576 4613 
Q 1875 4863 2516 4863 
L 3059 4863 
z
" transform="scale(0.015625)"/>
    </defs>
    <use xlink:href="#DejaVuSans-Oblique-54"/>
    <use xlink:href="#DejaVuSans-Oblique-68" transform="translate(61.083984 0)"/>
    <use xlink:href="#DejaVuSans-Oblique-65" transform="translate(124.462891 0)"/>
    <use xlink:href="#DejaVuSans-Oblique-20" transform="translate(185.986328 0)"/>
    <use xlink:href="#DejaVuSans-Oblique-72" transform="translate(217.773438 0)"/>
    <use xlink:href="#DejaVuSans-Oblique-65" transform="translate(258.886719 0)"/>
    <use xlink:href="#DejaVuSans-Oblique-73" transform="translate(320.410156 0)"/>
    <use xlink:href="#DejaVuSans-Oblique-75" transform="translate(372.509766 0)"/>
    <use xlink:href="#DejaVuSans-Oblique-6c" transform="translate(435.888672 0)"/>
    <use xlink:href="#DejaVuSans-Oblique-74" transform="translate(463.671875 0)"/>
    <use xlink:href="#DejaVuSans-Oblique-20" transform="translate(502.880859 0)"/>
    <use xlink:href="#DejaVuSans-Oblique-64" transform="translate(534.667969 0)"/>
    <use xlink:href="#DejaVuSans-Oblique-65" transform="translate(598.144531 0)"/>
    <use xlink:href="#DejaVuSans-Oblique-70" transform="translate(659.667969 0)"/>
    <use xlink:href="#DejaVuSans-Oblique-65" transform="translate(723.144531 0)"/>
    <use xlink:href="#DejaVuSans-Oblique-6e" transform="translate(784.667969 0)"/>
    <use xlink:href="#DejaVuSans-Oblique-64" transform="translate(848.046875 0)"/>
    <use xlink:href="#DejaVuSans-Oblique-73" transform="translate(911.523438 0)"/>
    <use xlink:href="#DejaVuSans-Oblique-20" transform="translate(963.623047 0)"/>
    <use xlink:href="#DejaVuSans-Oblique-6f" transform="translate(995.410156 0)"/>
    <use xlink:href="#DejaVuSans-Oblique-6e" transform="translate(1056.591797 0)"/>
    <use xlink:href="#DejaVuSans-Oblique-20" transform="translate(1119.970703 0)"/>
    <use xlink:href="#DejaVuSans-Oblique-64" transform="translate(1151.757812 0)"/>
    <use xlink:href="#DejaVuSans-Oblique-69" transform="translate(1215.234375 0)"/>
    <use xlink:href="#DejaVuSans-Oblique-72" transform="translate(1243.017578 0)"/>
    <use xlink:href="#DejaVuSans-Oblique-65" transform="translate(1284.130859 0)"/>
    <use xlink:href="#DejaVuSans-Oblique-63" transform="translate(1345.654297 0)"/>
    <use xlink:href="#DejaVuSans-Oblique-74" transform="translate(1400.634766 0)"/>
    <use xlink:href="#DejaVuSans-Oblique-69" transform="translate(1439.84375 0)"/>
    <use xlink:href="#DejaVuSans-Oblique-6f" transform="translate(1467.626953 0)"/>
    <use xlink:href="#DejaVuSans-Oblique-6e" transform="translate(1528.808594 0)"/>
    <use xlink:href="#DejaVuSans-Oblique-20" transform="translate(1592.1875 0)"/>
    <use xlink:href="#DejaVuSans-Oblique-28" transform="translate(1623.974609 0)"/>
    <use xlink:href="#DejaVuSans-Oblique-61" transform="translate(1662.988281 0)"/>
    <use xlink:href="#DejaVuSans-Oblique-6e" transform="translate(1724.267578 0)"/>
    <use xlink:href="#DejaVuSans-Oblique-67" transform="translate(1787.646484 0)"/>
    <use xlink:href="#DejaVuSans-Oblique-6c" transform="translate(1851.123047 0)"/>
    <use xlink:href="#DejaVuSans-Oblique-65" transform="translate(1878.90625 0)"/>
    <use xlink:href="#DejaVuSans-Oblique-20" transform="translate(1940.429688 0)"/>
    <use xlink:href="#DejaVuSans-Oblique-62" transform="translate(1972.216797 0)"/>
    <use xlink:href="#DejaVuSans-Oblique-65" transform="translate(2035.693359 0)"/>
    <use xlink:href="#DejaVuSans-Oblique-74" transform="translate(2097.216797 0)"/>
    <use xlink:href="#DejaVuSans-Oblique-77" transform="translate(2136.425781 0)"/>
    <use xlink:href="#DejaVuSans-Oblique-65" transform="translate(2218.212891 0)"/>
    <use xlink:href="#DejaVuSans-Oblique-65" transform="translate(2279.736328 0)"/>
    <use xlink:href="#DejaVuSans-Oblique-6e" transform="translate(2341.259766 0)"/>
    <use xlink:href="#DejaVuSans-Oblique-20" transform="translate(2404.638672 0)"/>
    <use xlink:href="#DejaVuSans-Oblique-76" transform="translate(2436.425781 0)"/>
    <use xlink:href="#DejaVuSans-Oblique-65" transform="translate(2495.605469 0)"/>
    <use xlink:href="#DejaVuSans-Oblique-63" transform="translate(2557.128906 0)"/>
    <use xlink:href="#DejaVuSans-Oblique-74" transform="translate(2612.109375 0)"/>
    <use xlink:href="#DejaVuSans-Oblique-6f" transform="translate(2651.318359 0)"/>
    <use xlink:href="#DejaVuSans-Oblique-72" transform="translate(2712.5 0)"/>
    <use xlink:href="#DejaVuSans-Oblique-73" transform="translate(2753.613281 0)"/>
    <use xlink:href="#DejaVuSans-Oblique-29" transform="translate(2805.712891 0)"/>
    <use xlink:href="#DejaVuSans-Oblique-20" transform="translate(2844.726562 0)"/>
    <use xlink:href="#DejaVuSans-Oblique-61" transform="translate(2876.513672 0)"/>
    <use xlink:href="#DejaVuSans-Oblique-6e" transform="translate(2937.792969 0)"/>
    <use xlink:href="#DejaVuSans-Oblique-64" transform="translate(3001.171875 0)"/>
    <use xlink:href="#DejaVuSans-Oblique-20" transform="translate(3064.648438 0)"/>
    <use xlink:href="#DejaVuSans-Oblique-6d" transform="translate(3096.435547 0)"/>
    <use xlink:href="#DejaVuSans-Oblique-61" transform="translate(3193.847656 0)"/>
    <use xlink:href="#DejaVuSans-Oblique-67" transform="translate(3255.126953 0)"/>
    <use xlink:href="#DejaVuSans-Oblique-6e" transform="translate(3318.603516 0)"/>
    <use xlink:href="#DejaVuSans-Oblique-69" transform="translate(3381.982422 0)"/>
    <use xlink:href="#DejaVuSans-Oblique-74" transform="translate(3409.765625 0)"/>
    <use xlink:href="#DejaVuSans-Oblique-75" transform="translate(3448.974609 0)"/>
    <use xlink:href="#DejaVuSans-Oblique-64" transform="translate(3512.353516 0)"/>
    <use xlink:href="#DejaVuSans-Oblique-65" transform="translate(3575.830078 0)"/>
    <use xlink:href="#DejaVuSans-Oblique-20" transform="translate(3637.353516 0)"/>
    <use xlink:href="#DejaVuSans-Oblique-28" transform="translate(3669.140625 0)"/>
    <use xlink:href="#DejaVuSans-Oblique-6c" transform="translate(3708.154297 0)"/>
    <use xlink:href="#DejaVuSans-Oblique-65" transform="translate(3735.9375 0)"/>
    <use xlink:href="#DejaVuSans-Oblique-6e" transform="translate(3797.460938 0)"/>
    <use xlink:href="#DejaVuSans-Oblique-67" transform="translate(3860.839844 0)"/>
    <use xlink:href="#DejaVuSans-Oblique-74" transform="translate(3924.316406 0)"/>
    <use xlink:href="#DejaVuSans-Oblique-68" transform="translate(3963.525391 0)"/>
    <use xlink:href="#DejaVuSans-Oblique-20" transform="translate(4026.904297 0)"/>
    <use xlink:href="#DejaVuSans-Oblique-6f" transform="translate(4058.691406 0)"/>
    <use xlink:href="#DejaVuSans-Oblique-66" transform="translate(4119.873047 0)"/>
    <use xlink:href="#DejaVuSans-Oblique-20" transform="translate(4155.078125 0)"/>
    <use xlink:href="#DejaVuSans-Oblique-62" transform="translate(4186.865234 0)"/>
    <use xlink:href="#DejaVuSans-Oblique-6f" transform="translate(4250.341797 0)"/>
    <use xlink:href="#DejaVuSans-Oblique-74" transform="translate(4311.523438 0)"/>
    <use xlink:href="#DejaVuSans-Oblique-68" transform="translate(4350.732422 0)"/>
    <use xlink:href="#DejaVuSans-Oblique-29" transform="translate(4414.111328 0)"/>
    <use xlink:href="#DejaVuSans-Oblique-2e" transform="translate(4453.125 0)"/>
   </g>
  </g>
 </g>
 <defs>
  <clipPath id="p0ed6c7822f">
   <rect x="42.620313" y="64.34884" width="339.996667" height="283.330556"/>
  </clipPath>
  <clipPath id="p9c1b720ecf">
   <rect x="418.326979" y="64.34884" width="339.996667" height="283.330556"/>
  </clipPath>
  <clipPath id="pa573544893">
   <rect x="794.033646" y="64.34884" width="339.996667" height="283.330556"/>
  </clipPath>
 </defs>
</svg>
